<?xml version="1.0" standalone="no"?>
<!DOCTYPE svg PUBLIC "-//W3C//DTD SVG 20010904//EN"
 "http://www.w3.org/TR/2001/REC-SVG-20010904/DTD/svg10.dtd">
<svg version="1.0" xmlns="http://www.w3.org/2000/svg"
 width="581.000000pt" height="581.000000pt" viewBox="0 0 581.000000 581.000000"
 preserveAspectRatio="xMidYMid meet">
<metadata>
Created by potrace 1.14, written by Peter Selinger 2001-2017
</metadata>
<g transform="translate(0.000000,581.000000) scale(0.100000,-0.100000)"
fill="#000000" stroke="none">
<path d="M2535 5793 c-94 -11 -357 -68 -490 -107 -5 -1 -30 -8 -55 -15 -73
-21 -198 -70 -308 -122 -57 -27 -106 -49 -108 -49 -3 0 -48 -25 -100 -55 -53
-30 -97 -55 -99 -55 -8 0 -252 -175 -325 -232 -193 -153 -407 -390 -554 -613
-228 -344 -332 -596 -438 -1050 l-32 -140 -1 -410 0 -410 39 -165 c66 -282
190 -639 244 -702 8 -10 12 -18 8 -18 -4 0 2 -13 14 -30 12 -16 18 -30 14 -30
-3 0 -1 -6 5 -13 6 -8 7 -18 3 -22 -4 -5 -2 -6 3 -2 6 3 24 -20 40 -51 17 -31
36 -63 43 -70 7 -8 10 -18 7 -23 -4 -5 1 -9 9 -9 9 0 16 -9 16 -20 0 -11 5
-20 10 -20 6 0 10 -7 10 -16 0 -8 4 -13 9 -10 5 3 12 -1 15 -10 4 -10 2 -13
-7 -9 -6 4 -3 -1 7 -9 11 -9 17 -16 13 -16 -4 0 2 -9 13 -20 12 -12 18 -25 15
-30 -3 -5 0 -12 6 -16 8 -5 9 -3 4 7 -8 12 -6 12 8 0 9 -7 14 -17 11 -22 -3
-5 0 -9 6 -9 6 0 8 -5 5 -10 -4 -6 -3 -9 2 -8 4 2 10 -1 13 -7 2 -5 16 -22 30
-36 59 -62 71 -79 64 -90 -4 -7 -3 -9 4 -5 6 3 17 -1 24 -10 7 -9 24 -27 38
-41 20 -20 22 -26 10 -35 -13 -8 -12 -9 1 -5 17 6 76 -50 71 -65 -1 -5 4 -7
11 -5 6 1 11 -4 10 -10 -2 -7 3 -12 10 -10 6 1 11 -4 10 -10 -2 -7 0 -12 5
-12 20 3 32 -3 32 -17 0 -8 4 -12 10 -9 5 3 15 -3 22 -15 7 -11 18 -20 25 -20
6 0 13 -3 15 -7 2 -5 20 -21 41 -36 20 -15 37 -34 37 -41 0 -8 7 -17 16 -20
15 -6 15 -4 3 10 -13 16 -12 16 8 4 12 -8 19 -18 17 -22 -3 -4 0 -8 6 -8 6 0
8 -4 5 -10 -3 -5 0 -8 7 -5 7 3 24 -4 38 -15 21 -17 22 -19 5 -14 -18 5 -18 4
-2 -6 9 -6 21 -9 26 -5 5 3 13 0 17 -6 5 -8 3 -9 -6 -4 -8 5 -11 4 -6 -3 4 -6
14 -8 23 -5 12 5 15 2 11 -8 -4 -9 1 -15 11 -16 27 -2 90 -46 91 -63 0 -13 1
-13 10 0 7 11 10 11 10 2 0 -7 4 -10 10 -7 5 3 10 1 10 -4 0 -6 -5 -11 -12
-11 -6 0 -8 -3 -5 -6 4 -4 13 -1 21 5 11 10 17 7 30 -11 9 -12 16 -19 16 -14
0 5 9 -3 21 -18 16 -20 24 -24 34 -16 9 7 16 5 26 -7 13 -16 12 -17 -3 -4 -12
9 -18 10 -18 2 0 -6 6 -12 13 -12 14 -1 28 -5 40 -9 11 -4 26 -7 38 -9 6 0 9
-8 6 -15 -4 -11 -1 -13 10 -9 12 5 14 3 8 -8 -7 -11 -5 -11 10 1 13 10 16 11
11 2 -5 -9 -3 -13 5 -11 29 3 38 -1 32 -18 -5 -12 -3 -14 8 -7 20 12 40 14 34
3 -4 -5 -1 -17 5 -26 11 -16 11 -16 6 -1 -3 10 0 20 6 24 7 5 8 2 3 -6 -6 -10
-4 -12 10 -6 16 6 16 4 4 -10 -13 -16 -12 -16 8 -5 19 9 22 9 17 -3 -4 -10 2
-13 25 -10 17 2 31 -1 31 -7 0 -6 -6 -7 -12 -3 -7 4 -5 -2 5 -12 14 -15 21
-17 37 -7 13 9 21 9 26 2 3 -6 13 -8 23 -4 12 5 13 4 4 -6 -10 -10 -16 -9 -29
2 -12 9 -15 10 -10 2 4 -7 16 -18 28 -24 12 -6 18 -7 14 -1 -3 5 1 13 10 16
12 5 14 1 9 -17 -5 -16 -4 -18 4 -8 10 16 45 25 35 10 -3 -5 -10 -6 -16 -3 -7
4 -8 2 -4 -5 4 -6 11 -9 16 -6 5 3 11 1 14 -4 3 -5 19 -8 36 -7 16 1 30 -1 30
-6 0 -4 5 -8 11 -8 5 0 7 5 3 12 -4 7 -3 8 4 4 6 -4 9 -13 6 -20 -3 -8 0 -17
6 -21 6 -3 10 -3 9 2 -3 18 1 33 10 33 4 0 7 -11 6 -23 -2 -15 2 -24 11 -24
10 0 11 4 3 14 -8 9 -8 13 0 13 20 0 26 -4 23 -16 -3 -13 36 -12 59 1 8 5 5
-2 -5 -14 l-20 -22 29 15 c17 9 35 12 44 7 9 -5 22 -6 29 -4 6 3 12 0 12 -6 0
-5 -9 -8 -19 -6 -14 3 -18 -1 -14 -12 3 -8 9 -10 12 -5 3 5 14 8 24 6 9 -1 15
2 12 6 -3 5 0 12 6 16 8 4 9 3 5 -4 -4 -7 -2 -12 4 -12 6 0 8 -6 4 -12 -4 -7
-4 -10 1 -6 4 4 15 2 23 -5 13 -11 14 -9 2 13 -11 21 -11 23 1 14 8 -6 24 -10
36 -8 14 2 28 -4 37 -18 12 -17 24 -22 52 -20 25 2 34 -1 28 -9 -5 -8 -3 -9 6
-4 10 6 9 11 -5 21 -16 12 -16 13 3 11 11 0 20 -4 20 -7 -2 -18 3 -32 9 -27 3
4 18 0 32 -10 20 -13 23 -13 14 -1 -7 8 -10 18 -6 22 4 4 13 -4 21 -16 7 -13
11 -15 8 -6 -4 12 0 16 14 13 11 -2 22 0 25 6 4 5 12 9 18 9 8 0 8 -3 2 -8
-13 -8 -13 -27 -2 -39 5 -4 7 -2 5 6 -2 7 3 16 11 19 8 2 11 0 8 -5 -3 -5 0
-10 8 -10 8 0 12 4 10 8 -7 11 20 18 34 9 7 -4 12 -11 11 -16 -1 -5 3 -9 10
-11 6 -1 7 0 0 4 -5 2 -8 9 -4 14 9 15 22 10 27 -8 4 -17 5 -17 6 0 0 9 6 17
12 17 5 0 7 -6 3 -12 -5 -8 0 -7 11 2 11 9 16 10 11 3 -4 -7 -3 -13 2 -13 5 0
13 10 19 22 6 15 12 18 17 10 4 -7 2 -12 -3 -12 -6 0 -11 -4 -11 -9 0 -14 26
-20 41 -9 11 7 9 8 -6 3 -16 -5 -17 -4 -8 6 10 10 16 9 29 -2 10 -8 15 -9 11
-2 -4 6 -2 15 4 19 7 4 9 3 6 -3 -4 -6 0 -19 9 -29 14 -18 15 -18 9 4 -8 26 3
29 21 5 13 -17 14 -17 20 5 3 12 10 22 15 22 5 0 6 -7 3 -15 -4 -8 -1 -15 4
-15 6 0 14 9 17 20 7 23 22 27 22 5 0 -8 -4 -12 -9 -9 -4 3 -8 1 -8 -4 0 -13
49 -12 57 1 4 6 0 8 -10 4 -24 -9 -21 0 4 14 15 8 19 8 15 0 -4 -6 -2 -11 3
-11 6 0 11 -8 11 -17 1 -12 6 -7 15 12 9 17 13 21 9 8 -2 -12 0 -24 5 -28 6
-3 9 0 6 7 -4 9 2 14 15 14 14 0 19 -5 15 -15 -4 -11 -3 -12 10 -1 8 7 15 9
15 4 0 -4 5 -3 12 4 15 15 31 16 22 0 -4 -6 -3 -8 4 -4 6 3 9 15 7 26 -2 11 1
23 7 26 7 4 8 2 4 -4 -4 -7 -2 -12 4 -12 6 0 9 -4 6 -8 -2 -4 4 -8 15 -8 23 0
23 0 2 22 -17 17 -17 18 1 11 14 -5 17 -4 12 8 -8 22 2 18 15 -6 9 -17 8 -20
-3 -13 -11 6 -11 5 1 -9 7 -9 16 -17 19 -17 3 0 2 3 -1 7 -4 3 -2 12 4 20 14
16 53 18 43 1 -4 -7 -3 -8 4 -4 7 4 12 1 12 -6 0 -8 5 -6 11 5 5 9 17 17 24
17 19 0 19 10 -1 24 -13 10 -13 12 5 12 11 0 19 -3 19 -6 -2 -20 3 -30 12 -25
6 4 8 11 5 16 -3 5 1 6 10 3 13 -5 13 -9 3 -22 -7 -9 5 -3 26 13 22 17 37 25
34 20 -4 -6 2 -12 13 -12 10 -1 19 3 19 8 0 6 -4 7 -10 4 -5 -3 -10 -1 -10 5
0 7 7 10 15 7 8 -4 17 -2 20 4 4 5 11 7 16 4 5 -4 9 2 9 12 0 15 2 16 10 3 11
-17 8 -21 -17 -24 -10 -2 -17 -6 -15 -9 3 -10 5 -10 34 4 21 9 25 15 17 25
-10 13 6 32 18 20 4 -3 1 -6 -5 -6 -9 0 -9 -4 0 -19 9 -16 14 -17 25 -6 19 20
16 30 -4 14 -16 -13 -17 -12 -5 3 8 9 20 14 29 11 8 -3 19 0 25 8 8 11 9 10 4
-4 -3 -10 -2 -16 3 -12 5 3 12 -1 15 -7 4 -7 4 -3 2 9 -2 12 2 27 10 34 8 6
14 8 14 3 0 -5 5 -2 11 6 9 13 10 12 5 -2 -3 -10 -1 -18 5 -18 6 0 7 -6 4 -12
-4 -7 3 -2 14 12 11 14 21 29 21 34 0 4 6 6 13 3 8 -3 20 -1 28 3 8 5 19 4 26
-2 10 -8 13 -6 13 6 0 9 5 16 11 16 6 0 8 -8 5 -17 -6 -16 -5 -16 8 0 8 10 28
19 44 19 26 1 29 3 16 15 -20 20 -17 26 6 13 16 -9 24 -7 37 6 16 15 18 15 31
-2 13 -18 14 -18 7 4 -5 16 -2 22 10 22 10 0 14 -5 9 -12 -5 -10 -3 -10 7 0
12 11 12 14 -1 22 -9 6 -10 10 -3 10 6 0 19 -7 27 -16 21 -20 21 -6 0 17 -12
13 -12 19 -3 25 7 4 10 3 5 -4 -3 -6 -2 -13 3 -16 13 -8 42 4 36 14 -3 5 0 12
6 16 8 4 9 3 5 -4 -4 -7 -2 -12 3 -12 6 0 11 7 11 15 0 8 4 15 10 15 5 0 7 -7
4 -15 -4 -8 -1 -15 5 -15 6 0 12 7 12 15 3 29 4 33 13 42 5 4 6 3 3 -3 -4 -7
0 -15 9 -18 11 -4 15 -2 11 8 -9 22 13 33 61 31 47 -1 60 8 43 29 -8 10 -7 17
6 27 11 9 14 10 9 2 -4 -8 -2 -13 4 -13 6 0 9 -4 6 -8 -3 -5 1 -9 9 -9 11 0
12 5 3 20 -5 11 -6 17 -1 14 10 -6 45 18 43 29 -1 5 4 10 10 12 8 3 10 -3 6
-19 -6 -22 -6 -22 7 -7 8 10 17 15 20 11 4 -3 7 1 7 11 0 9 -4 14 -10 11 -5
-3 -10 -1 -10 4 0 15 13 14 29 -1 11 -11 13 -10 8 4 -4 12 -2 15 7 12 8 -3 17
0 21 5 3 6 11 8 17 5 7 -4 8 -2 4 4 -4 7 -2 12 4 12 6 0 9 4 5 10 -3 5 8 16
25 25 17 9 29 19 26 23 -3 4 4 9 15 9 17 2 16 -1 -8 -20 -15 -12 -30 -25 -31
-29 -2 -5 -7 -6 -11 -4 -4 3 -7 -4 -7 -15 0 -19 1 -20 14 -2 7 10 18 17 23 16
5 -2 8 3 6 10 -1 6 4 11 11 9 8 -1 11 2 6 9 -5 8 -2 10 8 7 14 -6 16 -2 20 41
1 11 5 18 9 15 4 -2 12 3 19 11 9 11 17 12 30 5 21 -11 28 -4 25 25 -1 17 4
21 26 19 19 -1 26 2 23 11 -3 7 0 16 5 20 6 3 8 11 5 17 -4 7 -2 8 5 4 9 -6 9
-11 -1 -24 -8 -10 -8 -13 -1 -9 6 4 13 2 15 -5 3 -7 5 4 6 25 1 26 -2 36 -10
31 -7 -4 -8 -3 -4 4 8 14 36 4 32 -11 -1 -7 -1 -9 1 -4 3 4 9 5 14 2 5 -4 6 2
2 11 -5 13 -3 15 7 9 9 -6 11 -4 6 4 -5 7 -15 10 -23 7 -8 -4 -11 -1 -8 5 4 6
14 8 22 5 10 -4 13 -2 10 8 -4 10 0 12 15 8 18 -4 20 -2 16 16 -4 13 -2 20 4
16 5 -3 12 3 15 15 3 12 9 21 14 21 13 0 6 -23 -11 -38 -13 -11 -11 -11 8 -2
12 6 20 15 17 20 -7 12 26 29 45 23 9 -3 11 -1 5 4 -12 10 -13 48 -2 59 4 5 5
1 2 -8 -4 -9 -1 -19 6 -24 8 -5 10 -3 4 6 -6 10 -4 12 8 7 16 -6 16 -4 1 17
-11 18 -12 26 -3 32 7 4 10 3 7 -2 -3 -5 1 -16 10 -23 14 -13 15 -12 9 8 -3
15 -1 21 6 18 18 -7 56 33 50 51 -5 11 -3 13 7 7 9 -6 11 -4 6 4 -5 7 -14 10
-22 7 -22 -8 -17 2 7 15 17 9 20 8 14 -3 -6 -10 -5 -10 5 -1 7 6 13 24 13 38
0 19 2 23 8 14 5 -8 6 -23 4 -34 -3 -11 -2 -14 1 -7 3 6 11 9 16 6 6 -4 8 -2
5 4 -10 14 3 43 15 36 6 -4 4 4 -3 17 -12 23 -11 23 6 9 17 -14 17 -14 7 6
-14 26 -6 37 18 24 12 -6 17 -5 17 5 0 8 -4 12 -9 9 -4 -3 -8 0 -8 6 0 6 -6 8
-12 4 -7 -4 -9 -3 -5 2 4 4 18 9 30 9 17 0 22 6 22 26 -1 20 3 25 15 21 13 -5
13 -4 0 13 -14 17 -14 18 8 6 14 -7 22 -8 22 -1 0 5 -4 10 -10 10 -5 0 -10 5
-10 10 0 7 6 7 18 1 14 -7 19 -6 19 4 0 8 -4 12 -9 9 -4 -3 -8 0 -8 5 0 6 6
11 14 11 9 0 12 7 9 19 -3 11 2 21 13 25 14 5 15 4 4 -9 -8 -10 -9 -15 -1 -15
6 0 12 6 13 13 4 35 3 43 -7 50 -6 5 -4 7 5 4 8 -2 14 -10 13 -16 -4 -17 5
-13 16 7 6 12 6 23 -1 33 -8 11 -8 9 -3 -6 5 -15 3 -17 -6 -8 -21 21 1 36 24
16 l20 -18 -19 30 c-14 23 -15 27 -3 18 16 -13 29 -8 29 11 0 6 -5 4 -11 -4
-9 -13 -10 -13 -6 0 2 8 11 14 20 14 10 -1 13 4 10 14 -5 11 -3 13 7 7 9 -5
11 -4 6 4 -6 9 -11 9 -21 1 -10 -9 -13 -7 -10 7 2 10 4 19 4 20 1 1 12 -2 26
-7 33 -13 32 -5 -2 15 -23 13 -24 15 -5 10 13 -4 22 -2 22 5 0 6 4 9 9 6 18
-11 5 24 -15 40 -18 14 -18 15 4 4 23 -11 46 -5 37 10 -3 5 -13 7 -23 4 -15
-5 -15 -4 1 6 14 9 22 9 33 -1 11 -9 8 0 -6 26 -12 21 -16 34 -8 28 10 -9 18
-7 33 4 13 10 14 14 4 10 -20 -7 -46 8 -30 17 6 4 11 3 11 -3 0 -6 7 -8 16 -4
15 5 15 7 0 15 -9 5 -16 17 -15 26 0 14 2 13 9 -3 5 -11 9 -16 9 -11 1 5 8 3
16 -4 9 -8 15 -8 15 -2 0 6 -5 12 -12 14 -14 5 -20 38 -6 38 6 0 8 -6 5 -13
-3 -8 1 -14 8 -14 15 0 8 27 -9 39 -7 5 -4 8 7 8 15 0 17 6 13 30 -3 22 0 30
11 30 12 0 13 -3 4 -14 -8 -9 -8 -16 -2 -20 11 -7 18 3 15 22 -1 6 -2 19 -3
28 0 8 -5 13 -10 9 -5 -3 -13 0 -17 6 -4 8 -3 9 4 5 11 -7 38 31 28 41 -3 3 6
21 21 39 20 27 23 37 14 48 -9 11 -8 14 6 12 10 0 18 5 19 12 1 6 2 17 3 23 0
5 7 7 14 3 6 -4 3 3 -8 16 -20 23 -20 23 0 16 11 -4 16 -4 12 0 -4 4 -1 14 6
23 10 14 10 14 -4 3 -14 -10 -18 -10 -23 3 -4 11 -2 14 6 9 8 -5 9 -2 5 10 -4
9 -3 15 2 12 11 -7 20 14 14 32 -3 6 -10 9 -15 6 -7 -5 -8 -2 -3 5 4 7 15 11
25 8 13 -3 17 0 13 10 -3 8 -13 12 -22 9 -13 -5 -13 -4 2 8 18 14 24 32 8 21
-5 -3 -12 -2 -15 3 -8 13 28 11 37 -2 4 -6 5 1 3 16 -2 15 0 29 5 32 5 2 4 3
-3 2 -7 -2 -12 -9 -10 -15 1 -7 -2 -10 -7 -6 -13 7 -3 35 13 35 7 0 7 3 1 8
-5 4 -11 14 -13 22 -3 11 3 9 20 -5 13 -11 17 -13 11 -5 -16 18 -17 34 -1 24
7 -4 8 -3 4 5 -4 6 -12 8 -18 5 -6 -4 -8 -2 -4 4 3 5 0 13 -6 16 -7 3 -3 3 10
0 12 -3 22 -1 22 5 0 11 -15 15 -34 12 -5 -1 -4 4 2 12 7 8 8 17 4 21 -4 4 -1
6 7 4 7 -2 16 3 19 11 3 9 0 11 -9 7 -8 -4 -3 3 11 15 16 14 19 20 8 16 -12
-4 -15 -2 -11 8 3 8 8 13 12 11 4 -3 6 11 5 30 -2 24 0 33 9 29 7 -4 4 0 -5 8
-10 8 -15 17 -11 20 3 4 11 2 18 -3 8 -7 12 -5 12 5 0 8 -4 12 -9 9 -4 -3 -8
0 -8 7 0 8 -5 7 -17 -2 -16 -12 -17 -12 -6 2 7 9 9 19 5 23 -4 5 2 6 12 4 10
-1 21 3 24 10 2 9 -3 12 -14 10 -14 -2 -19 3 -19 22 -2 36 3 41 28 29 21 -9
21 -9 3 5 -11 9 -15 20 -10 28 5 9 2 8 -12 -2 -18 -14 -18 -14 -5 3 8 9 11 20
8 24 -4 3 1 11 10 18 13 9 13 14 3 20 -8 5 -11 4 -7 -2 3 -5 -1 -10 -9 -10
-10 0 -11 4 -4 11 14 14 13 29 -2 21 -7 -4 -2 3 12 15 l25 21 -25 -6 c-16 -4
-20 -3 -12 3 13 9 12 38 -2 61 -5 7 -5 16 0 20 15 10 17 44 3 35 -8 -4 -10 -3
-5 4 4 6 13 9 20 6 8 -3 17 -1 20 4 3 5 -2 9 -11 8 -9 0 -18 5 -21 13 -3 8 0
11 7 7 7 -5 9 -1 5 8 -3 9 -9 14 -14 11 -4 -2 -6 11 -4 30 1 23 -1 33 -8 29
-7 -4 -8 -2 -4 4 4 6 13 9 22 5 11 -4 12 -8 3 -20 -9 -10 -9 -17 -2 -24 8 -8
13 -7 18 2 5 8 4 10 -3 5 -15 -9 -16 6 -1 21 8 8 4 15 -12 26 -16 12 -22 25
-21 49 1 18 -3 40 -8 47 -6 10 -3 19 8 28 15 11 15 12 -5 8 -15 -2 -20 0 -17
10 3 8 13 11 22 8 13 -4 14 -3 3 5 -7 5 -10 15 -7 21 4 6 3 11 -3 11 -5 0 -11
-6 -14 -12 -3 -7 -5 -4 -5 7 0 11 -3 31 -6 45 -3 13 -7 40 -8 60 -1 19 -7 38
-12 42 -7 5 -7 8 2 8 6 0 12 5 12 11 0 5 -4 8 -9 5 -14 -9 -21 20 -8 33 7 7 8
12 2 11 -22 -5 -26 1 -11 16 9 8 16 20 16 27 0 6 -7 2 -15 -9 -8 -10 -15 -14
-14 -9 1 6 0 12 -1 15 -7 19 -7 39 1 34 5 -3 6 -10 3 -16 -5 -7 -2 -8 6 -3 10
6 9 12 -7 24 -12 10 -19 28 -19 44 1 14 -4 29 -12 32 -10 4 -10 9 -1 26 6 12
7 19 1 15 -5 -3 -13 1 -16 10 -9 24 -7 31 4 14 6 -9 10 -10 10 -3 0 6 -7 19
-16 28 -9 8 -13 22 -10 31 4 10 2 13 -6 8 -8 -5 -9 -2 -5 9 3 10 3 17 -1 17
-4 0 -12 11 -19 25 -6 14 -8 23 -4 20 4 -2 8 2 8 9 0 8 -6 12 -12 10 -6 -3
-12 2 -12 10 0 8 7 12 16 9 9 -2 7 1 -4 8 -27 17 -34 29 -27 47 3 10 1 13 -6
8 -7 -4 -12 -1 -12 7 0 8 -7 27 -14 43 -8 15 -13 31 -10 36 3 4 1 8 -4 8 -12
0 -34 49 -26 61 3 5 0 8 -7 7 -6 -2 -14 3 -17 11 -3 9 0 11 9 7 8 -4 7 -1 -3
6 -23 20 -70 107 -63 118 3 6 1 10 -5 10 -6 0 -8 5 -5 10 3 6 -1 10 -10 10
-11 0 -15 5 -11 15 3 9 -1 18 -10 22 -9 3 -13 12 -9 21 3 9 3 13 -1 10 -10
-10 -48 36 -60 75 -4 9 -11 17 -16 17 -5 0 -6 5 -3 10 3 6 1 10 -5 10 -6 0
-16 12 -23 27 -6 15 -19 35 -27 45 -32 35 -40 48 -40 58 0 6 -4 8 -10 5 -5 -3
-10 1 -10 9 0 9 -5 16 -12 16 -6 0 -9 2 -6 5 3 3 -12 24 -33 47 -21 23 -35 46
-32 51 3 6 1 7 -4 4 -6 -4 -18 5 -27 19 -21 31 -197 207 -251 251 -156 126
-376 282 -445 315 -14 7 -27 15 -30 18 -13 14 -275 142 -355 173 -49 19 -99
38 -110 42 -11 5 -22 9 -25 10 -3 0 -32 9 -65 19 -33 10 -67 19 -75 21 -8 2
-40 10 -70 19 -30 9 -122 30 -205 48 -150 31 -150 31 -485 33 -184 1 -348 0
-365 -2z m190 -183 c3 -5 1 -10 -4 -10 -6 0 -11 5 -11 10 0 6 2 10 4 10 3 0 8
-4 11 -10z m210 -19 c-3 -6 -11 -9 -16 -6 -5 3 -6 -1 -3 -10 5 -13 10 -11 29
11 16 19 25 23 30 14 5 -8 4 -11 -2 -7 -5 3 -10 0 -10 -8 0 -13 4 -12 19 2 10
9 21 13 25 10 3 -4 12 -2 19 4 8 7 19 7 30 1 11 -6 13 -11 5 -16 -6 -4 -11
-13 -11 -19 0 -8 4 -7 9 2 8 12 12 13 26 1 9 -7 15 -9 14 -4 -4 20 2 31 16 31
8 0 15 -4 15 -9 0 -4 -5 -8 -12 -8 -6 0 -9 -2 -6 -5 8 -8 39 6 33 14 -2 4 6 7
18 6 12 -1 28 2 35 8 7 6 12 6 10 1 -2 -5 2 -11 7 -12 6 -2 15 -7 20 -11 6 -4
20 -6 32 -5 12 0 20 -2 17 -7 -2 -4 -12 -6 -22 -3 -13 5 -14 4 -3 -4 7 -5 22
-7 34 -4 12 3 18 1 14 -5 -8 -12 50 -10 61 2 4 5 -2 5 -13 1 -14 -5 -17 -4 -9
4 6 6 18 8 28 4 13 -5 14 -9 5 -20 -10 -12 -8 -13 6 -8 14 6 16 4 10 -7 -6
-11 -5 -12 6 -1 16 15 33 16 23 0 -4 -7 -3 -8 5 -4 14 9 3 29 -13 23 -7 -3
-13 1 -13 8 0 21 38 -3 45 -28 5 -20 5 -20 13 1 5 12 16 21 26 21 17 -1 17 -2
1 -6 -10 -2 -18 -9 -18 -15 0 -6 3 -8 7 -5 3 4 15 -1 26 -10 13 -11 17 -12 12
-4 -6 11 -4 13 9 8 11 -4 15 -3 11 4 -4 6 -14 8 -24 4 -13 -5 -13 -4 -4 6 10
10 16 9 31 -4 15 -13 21 -14 32 -4 8 6 6 1 -5 -12 -11 -14 -14 -21 -6 -16 8 4
16 3 21 -5 5 -8 9 -7 13 5 5 10 3 14 -5 9 -7 -4 -8 -3 -4 5 4 6 13 8 19 4 7
-4 18 -8 25 -9 23 -4 26 -13 11 -30 -13 -16 -12 -16 8 -4 12 8 20 18 17 22 -3
4 2 5 11 2 14 -6 14 -8 0 -18 -13 -9 -10 -11 16 -12 17 -1 35 -7 40 -15 7 -11
9 -11 9 -1 0 7 -10 17 -22 22 -17 6 -18 9 -6 9 9 1 20 -4 23 -9 4 -6 11 -7 17
-4 7 5 8 2 3 -6 -5 -9 -2 -10 12 -6 13 4 25 0 34 -11 9 -11 10 -14 2 -9 -7 4
-13 2 -13 -3 0 -15 13 -14 29 2 11 10 12 9 6 -2 -6 -11 -4 -13 8 -8 11 4 17 1
17 -9 0 -8 5 -12 10 -9 6 4 8 11 5 16 -10 15 2 10 16 -8 8 -9 9 -14 3 -10 -6
3 -11 -1 -11 -10 0 -13 4 -12 18 5 14 18 18 19 23 6 4 -9 2 -12 -5 -8 -8 4 -7
0 0 -15 13 -24 17 -25 27 -9 5 7 3 8 -6 3 -8 -5 -11 -3 -8 5 5 15 30 27 27 13
-4 -21 2 -33 17 -33 9 0 12 -5 8 -12 -5 -7 -3 -8 6 -3 10 6 9 11 -5 22 -11 7
-15 13 -9 13 17 -1 44 -27 36 -36 -4 -4 2 -2 12 6 17 13 18 13 11 1 -6 -11 -4
-13 8 -8 16 6 23 -8 18 -36 -1 -5 3 -6 9 -2 6 3 8 11 5 16 -3 5 1 6 9 3 9 -3
13 -11 9 -18 -4 -6 2 -4 12 4 17 14 18 13 12 -2 -3 -10 -1 -20 5 -24 7 -4 8
-3 4 4 -4 7 -2 12 3 12 6 0 11 -4 11 -10 0 -5 11 -10 24 -10 14 0 28 -5 31
-10 4 -6 11 -8 16 -5 5 3 6 -1 3 -9 -4 -11 0 -14 15 -11 14 2 18 -1 15 -10 -4
-10 0 -13 15 -10 16 3 21 -1 21 -16 0 -10 5 -19 11 -19 5 0 7 4 4 10 -3 6 1 7
9 4 9 -3 13 -10 10 -15 -3 -5 2 -9 11 -9 9 0 24 -8 33 -18 10 -10 13 -12 8 -5
-6 10 -4 12 8 7 9 -3 16 -10 16 -15 0 -5 11 -14 25 -19 14 -5 25 -14 25 -19 0
-5 9 -11 21 -14 12 -3 18 -10 15 -16 -4 -5 -1 -13 5 -17 8 -4 9 -3 5 4 -11 18
5 14 23 -5 9 -10 25 -23 36 -30 11 -6 19 -16 17 -22 -1 -6 6 -11 16 -11 9 0
30 -13 45 -30 16 -16 33 -30 39 -30 6 0 8 -6 5 -14 -4 -10 0 -12 16 -8 20 5
21 4 8 -11 -12 -15 -12 -17 1 -12 10 4 23 -4 35 -19 11 -14 24 -22 28 -18 4 4
4 -4 1 -18 -4 -14 -4 -20 1 -13 6 8 13 8 27 -3 11 -8 16 -14 10 -14 -5 0 5
-12 21 -26 17 -14 24 -22 16 -18 -9 4 -12 3 -7 -4 4 -6 14 -8 24 -5 9 3 14 3
10 -2 -4 -4 0 -14 8 -22 8 -8 12 -19 8 -24 -3 -5 0 -8 8 -7 7 2 12 -3 10 -10
-1 -6 4 -11 10 -10 7 2 12 -3 10 -10 -1 -8 2 -11 7 -7 12 7 33 -29 23 -40 -4
-5 -2 -5 5 -1 14 8 67 -59 58 -74 -4 -6 -3 -9 2 -8 10 4 53 -38 53 -52 0 -5 5
-10 12 -10 6 0 9 -3 5 -6 -5 -6 0 -15 31 -49 7 -8 10 -15 5 -15 -4 0 -3 -4 3
-8 19 -13 54 -79 46 -87 -4 -5 -2 -5 4 -2 6 4 27 -26 50 -71 21 -42 43 -80 48
-83 5 -4 5 -12 1 -19 -5 -9 -4 -11 3 -6 11 6 16 -6 13 -26 0 -5 4 -8 10 -8 5
0 7 -4 4 -10 -3 -5 -1 -10 6 -10 7 0 10 -3 6 -6 -3 -4 0 -13 8 -20 8 -8 12
-23 10 -34 -2 -11 0 -20 5 -20 6 0 57 -112 65 -145 1 -5 7 -23 14 -39 6 -16
13 -36 14 -45 1 -9 6 -22 11 -30 5 -7 10 -21 10 -30 1 -9 8 -36 15 -61 7 -25
15 -54 18 -65 8 -37 11 -50 13 -50 1 0 3 -11 5 -25 2 -14 6 -37 9 -52 12 -58
15 -74 20 -118 3 -25 8 -56 11 -70 3 -14 6 -42 6 -62 1 -21 5 -38 11 -38 5 0
4 -9 -2 -20 -6 -11 -7 -20 -1 -20 10 0 13 -368 3 -385 -3 -5 -7 -23 -9 -40 -1
-16 -5 -48 -9 -70 -3 -22 -7 -53 -8 -70 -2 -16 -7 -50 -11 -75 -5 -25 -9 -49
-10 -55 -1 -5 -3 -12 -4 -15 -2 -3 -4 -16 -6 -30 -2 -14 -11 -54 -20 -90 -9
-36 -19 -74 -22 -85 -2 -11 -5 -26 -5 -32 -1 -7 -4 -13 -8 -13 -4 0 -7 -6 -7
-12 0 -19 -70 -213 -100 -278 -77 -167 -129 -264 -210 -390 -47 -72 -126 -183
-143 -200 -3 -3 -25 -30 -49 -60 -74 -91 -242 -263 -306 -311 -16 -13 -32 -26
-35 -29 -14 -15 -109 -89 -135 -106 -16 -10 -32 -21 -35 -24 -10 -12 -101 -70
-110 -70 -4 0 -10 -4 -12 -8 -4 -11 -113 -73 -240 -138 -27 -13 -50 -24 -53
-25 -2 0 -39 -15 -80 -34 -42 -19 -83 -35 -91 -35 -7 0 -14 -4 -14 -10 0 -5
-3 -9 -7 -8 -5 1 -33 -6 -63 -16 -74 -24 -79 -25 -88 -27 -4 0 -22 -7 -39 -14
-18 -8 -33 -12 -33 -10 0 2 -21 -2 -47 -10 -27 -8 -59 -16 -73 -19 -14 -3 -36
-8 -50 -11 -14 -3 -40 -8 -59 -11 -18 -3 -42 -7 -53 -9 -29 -6 -128 -18 -161
-20 -16 -1 -33 -8 -38 -16 -7 -11 -9 -11 -9 0 0 11 -3 11 -17 0 -9 -8 -14 -9
-10 -3 3 6 0 11 -8 11 -8 0 -12 -4 -9 -8 8 -14 -338 -9 -355 4 -12 9 -13 9 -7
-1 4 -6 3 -12 -3 -12 -5 0 -11 4 -13 10 -1 5 -30 12 -63 15 -113 9 -130 11
-235 32 -14 3 -34 6 -45 9 -38 7 -80 16 -93 20 -7 2 -14 4 -17 4 -3 1 -19 6
-37 11 -18 6 -42 12 -52 14 -10 3 -35 10 -55 17 -20 7 -38 13 -41 13 -3 1 -12
4 -20 8 -31 12 -115 42 -120 43 -11 2 -48 18 -120 51 -41 19 -95 45 -120 56
-25 11 -47 23 -50 26 -3 3 -25 17 -50 30 -25 13 -76 44 -113 68 -37 23 -72 43
-77 43 -6 0 -10 3 -10 8 0 4 -16 18 -35 31 -19 13 -44 32 -56 42 -12 11 -25
19 -28 19 -3 0 -25 17 -48 38 -23 20 -61 53 -84 72 -45 38 -189 179 -189 185
0 3 -16 20 -35 40 -20 19 -34 35 -31 35 2 0 -9 14 -25 32 -23 24 -27 33 -17
40 9 6 5 7 -9 3 -19 -5 -23 -2 -23 14 0 12 -7 21 -15 21 -13 0 -20 19 -16 43
1 5 -3 6 -8 3 -9 -6 -61 55 -61 72 0 5 -11 21 -25 36 -14 15 -22 33 -18 42 3
9 0 14 -8 12 -8 -2 -13 4 -13 14 1 10 -3 15 -9 11 -6 -4 -8 0 -4 10 4 10 2 16
-6 14 -6 -1 -13 8 -15 21 -2 12 -7 20 -12 17 -4 -2 -14 10 -21 28 -7 17 -19
38 -26 45 -7 7 -13 20 -13 28 0 26 -1 29 -16 37 -8 4 -14 15 -14 23 0 9 5 12
12 8 7 -4 8 -3 4 5 -4 6 -12 9 -17 6 -5 -4 -12 2 -15 12 -3 10 -10 26 -15 37
-6 10 -6 16 -1 12 5 -3 9 1 9 8 0 8 -5 12 -12 10 -10 -4 -38 53 -32 67 1 3 -4
13 -12 22 -7 10 -10 17 -7 17 4 0 1 7 -8 15 -8 9 -13 22 -10 30 4 8 1 15 -5
15 -8 0 -9 5 -1 19 7 14 7 22 -2 27 -7 4 -8 3 -4 -4 4 -7 5 -12 2 -12 -3 0
-10 10 -17 21 -6 12 -7 19 -2 16 5 -3 9 3 9 13 0 13 -4 16 -11 10 -8 -7 -12
-5 -12 5 0 8 4 15 9 15 4 0 8 4 8 10 0 5 -8 6 -18 3 -15 -6 -16 -5 -2 12 8 10
10 16 3 12 -6 -4 -13 -1 -16 5 -6 19 4 39 16 31 6 -3 7 -1 3 6 -5 8 -12 9 -20
2 -9 -7 -12 -2 -14 19 -1 16 2 31 8 35 5 3 10 12 10 18 0 7 -4 6 -10 -3 -14
-23 -20 -11 -36 70 -3 19 -2 22 6 10 7 -11 10 -11 10 -2 0 7 -7 15 -15 18 -11
5 -12 10 -4 27 9 16 9 19 -3 15 -10 -4 -14 2 -14 23 0 16 3 29 8 29 4 0 5 7 2
15 -4 8 -9 13 -13 11 -4 -3 -8 6 -9 20 -1 13 3 24 9 24 6 0 1 9 -12 21 -13 11
-18 17 -10 13 11 -5 13 -2 9 14 -4 12 -2 20 2 17 5 -3 12 -1 15 5 4 6 3 10 -2
9 -18 -3 -33 2 -33 11 0 5 6 7 14 4 8 -3 17 0 22 7 4 7 3 10 -2 6 -6 -3 -16
-2 -24 4 -12 7 -11 9 5 9 18 1 18 2 -3 11 -13 5 -20 13 -17 19 4 7 13 7 28 -1
22 -10 22 -10 0 10 -24 20 -30 41 -12 41 5 0 7 -4 4 -10 -10 -16 1 -11 16 7 8
10 9 14 2 10 -6 -4 -14 -3 -18 3 -4 6 -11 8 -16 5 -5 -3 -6 1 -2 10 5 13 8 14
15 3 6 -9 8 -6 6 12 -2 17 1 24 10 22 8 -1 11 2 7 7 -7 12 -35 3 -35 -12 0 -6
-3 -8 -6 -4 -3 3 -2 12 2 19 12 18 12 32 -1 40 -6 5 -6 8 2 8 6 0 9 9 6 20 -3
11 0 20 6 20 6 0 8 -8 4 -17 -7 -19 -5 -18 17 10 11 16 11 18 -1 15 -8 -2 -13
3 -12 10 2 6 -2 12 -7 12 -6 0 -10 -5 -10 -12 0 -6 -3 -9 -6 -5 -3 3 -2 12 2
19 12 18 12 32 -1 40 -6 5 -5 8 3 8 7 0 10 5 6 12 -4 6 -3 9 2 6 5 -3 15 1 23
9 12 13 11 14 -10 8 -21 -7 -22 -6 -11 8 11 13 10 17 -5 26 -11 6 -13 11 -5
11 7 0 10 5 6 12 -4 6 -3 9 2 5 5 -3 15 6 21 20 12 25 12 25 -9 7 -19 -17 -21
-17 -15 -2 3 9 3 19 -1 21 -4 2 -2 3 3 2 6 -2 16 4 24 12 12 13 11 14 -7 8
-17 -5 -21 -3 -16 9 3 9 9 14 13 11 4 -2 8 2 8 10 0 11 -5 12 -21 3 -18 -10
-19 -9 -9 4 7 8 9 19 5 23 -4 5 -1 5 6 1 7 -4 12 -1 12 8 0 8 5 16 12 18 7 3
5 7 -6 11 -10 4 -15 3 -11 -3 3 -6 1 -10 -4 -10 -15 0 -13 12 6 35 13 17 15
17 9 2 -3 -11 -2 -16 5 -12 6 4 8 13 5 20 -2 7 1 19 7 26 10 11 9 11 -5 0 -10
-7 -18 -9 -18 -3 0 15 26 33 35 24 5 -4 4 0 -1 8 -5 8 -7 23 -6 32 2 13 -2 16
-15 12 -17 -5 -17 -5 -1 6 10 6 22 20 28 30 9 17 8 19 -7 13 -10 -3 -15 -3
-11 2 4 4 2 15 -5 24 -11 14 -10 15 7 1 18 -14 19 -13 13 3 -4 11 -2 17 8 17
14 0 16 23 4 45 -3 6 -4 16 -3 23 1 6 2 17 3 22 0 6 6 10 12 10 5 0 8 -4 5 -8
-3 -5 1 -9 8 -9 8 0 12 6 9 14 -5 12 -17 17 -36 14 -5 -1 -6 3 -3 8 4 5 19 8
34 6 15 -2 21 -2 15 1 -16 7 -17 54 -2 54 5 0 7 -5 3 -12 -4 -7 -3 -8 4 -4 11
7 6 36 -7 36 -4 0 -12 -4 -19 -10 -8 -7 -9 -7 -3 1 5 6 7 19 4 28 -4 14 -3 14
6 1 6 -8 11 -11 11 -6 0 5 7 3 14 -4 13 -10 14 -7 10 16 -3 15 -8 32 -11 36
-3 5 4 12 14 14 15 4 20 15 21 41 1 27 -2 34 -14 29 -9 -3 -12 -2 -9 5 4 5 14
9 23 8 32 -3 43 1 36 12 -5 8 -9 8 -14 -1 -5 -8 -9 -5 -13 9 -4 16 -1 21 11
19 12 -2 16 7 18 35 2 25 -1 35 -8 31 -7 -4 -8 -3 -4 4 4 6 13 9 21 6 11 -5
12 -11 4 -27 -10 -21 -10 -21 5 -3 11 13 12 23 6 31 -14 17 1 27 19 12 14 -10
14 -10 3 5 -8 9 -21 14 -30 12 -15 -5 -15 -4 1 6 9 6 22 8 28 4 7 -4 7 1 -1
16 -7 13 -8 20 -2 16 6 -3 13 3 17 14 3 11 11 20 16 20 5 0 9 5 9 12 0 6 -10
2 -23 -10 -13 -12 -27 -22 -33 -22 -5 0 -1 5 9 11 9 6 14 15 11 21 -4 6 -3 8
3 5 5 -3 15 3 23 13 8 10 17 17 21 14 4 -2 6 7 4 22 -2 17 2 24 11 20 8 -3 11
0 8 9 -3 8 -13 11 -22 9 -9 -3 -5 2 11 11 15 9 33 13 40 10 6 -4 5 -1 -4 7 -9
7 -16 21 -16 30 0 20 24 32 33 16 4 -6 3 -8 -3 -5 -6 4 -13 1 -16 -7 -3 -8 1
-17 9 -20 8 -3 12 -2 9 3 -3 5 -1 12 4 15 5 3 7 15 4 26 -3 11 -9 17 -14 14
-5 -3 -6 2 -2 12 5 15 7 15 15 0 5 -9 14 -16 20 -16 9 0 9 3 1 11 -6 6 -9 18
-6 27 5 11 3 13 -7 7 -8 -5 -11 -4 -6 3 4 6 13 9 22 5 12 -4 12 -8 2 -22 -11
-13 -10 -13 8 1 19 17 32 64 13 53 -5 -4 -9 -2 -9 3 0 14 26 22 37 11 5 -5 9
-1 10 11 1 13 -3 17 -13 13 -8 -3 -14 0 -14 7 0 6 5 8 10 5 9 -5 14 7 12 26
-1 4 7 5 17 2 21 -5 45 21 37 42 -3 10 1 15 12 15 15 1 15 2 -2 15 -23 18 -14
20 16 4 13 -7 18 -7 14 -1 -3 6 -1 14 5 17 5 4 8 14 5 22 -3 8 -1 11 4 8 6 -3
10 -1 10 5 0 6 4 9 9 6 4 -3 7 8 5 24 -4 31 10 48 22 29 4 -8 3 -9 -4 -5 -7 4
-12 2 -12 -3 0 -6 6 -11 13 -11 9 0 9 -2 -1 -9 -11 -7 -11 -9 1 -14 11 -4 14
5 12 44 -1 28 -2 49 -1 47 1 -2 8 -12 16 -22 9 -12 10 -17 3 -12 -9 5 -11 2
-7 -9 7 -17 14 -15 18 7 6 35 18 58 28 52 8 -5 9 -1 4 11 -5 15 -4 16 8 6 11
-9 14 -8 12 6 -1 13 6 18 21 17 13 0 21 2 18 4 -3 3 5 16 17 29 19 20 19 23 4
23 -10 0 -14 -5 -10 -12 5 -7 3 -8 -6 -3 -9 6 -11 4 -5 -5 6 -9 4 -11 -5 -5
-9 5 -11 4 -6 -3 11 -18 0 -14 -15 5 -8 9 -9 14 -3 10 14 -8 37 16 27 27 -4 4
1 4 11 0 15 -6 17 -4 11 7 -7 11 -6 12 7 2 8 -7 19 -9 23 -5 5 4 5 -1 2 -11
-4 -11 -3 -16 4 -12 6 4 8 13 5 20 -2 7 2 16 9 19 8 3 12 12 9 21 -3 8 -9 13
-13 10 -4 -2 -8 2 -8 9 0 7 6 13 13 13 7 0 11 -4 9 -8 -3 -3 1 -12 9 -18 11
-9 13 -5 10 21 -3 23 -1 29 5 18 6 -8 8 -17 5 -21 -2 -4 0 -10 5 -13 5 -3 7 7
6 23 -2 25 1 29 20 27 17 -2 22 2 21 20 -1 13 2 24 7 24 29 0 31 -1 17 -10 -9
-6 -10 -10 -3 -10 6 0 15 5 18 10 4 6 11 7 17 4 7 -4 8 -2 4 5 -4 6 -11 9 -16
6 -5 -3 -12 0 -16 6 -4 7 -3 9 3 6 5 -3 21 0 36 8 19 10 27 10 31 2 3 -7 4 -3
3 8 -1 12 3 19 11 17 8 -1 11 2 7 8 -3 6 -11 8 -16 5 -15 -10 -10 2 8 16 9 8
14 9 10 3 -4 -7 -1 -14 7 -17 9 -4 12 0 9 13 -4 15 -1 18 19 14 20 -5 21 -4 5
6 -9 6 -15 16 -11 21 4 6 11 6 20 -2 8 -6 14 -8 14 -3 0 5 5 2 10 -6 8 -12 10
-11 10 7 0 16 -4 21 -15 17 -8 -4 -15 -1 -15 6 0 6 4 9 9 5 5 -3 12 -1 16 5 4
6 10 8 15 5 5 -3 11 -1 15 5 3 5 1 10 -4 10 -6 0 -11 4 -11 9 0 11 26 8 37 -4
4 -4 4 -6 -2 -3 -5 4 -11 -6 -12 -20 l-1 -27 14 28 c8 15 19 25 24 22 6 -4 7
2 3 12 -6 16 -5 16 10 4 10 -8 20 -11 24 -7 3 3 2 6 -4 6 -16 0 -24 28 -11 36
6 4 8 3 5 -3 -4 -6 -1 -13 7 -16 15 -6 16 9 1 33 -7 12 -6 13 7 3 8 -7 18 -10
22 -6 4 4 4 0 0 -10 -3 -9 -2 -17 3 -17 15 0 11 34 -4 45 -12 9 -11 11 6 11
11 0 18 -3 16 -6 -2 -3 0 -12 6 -20 7 -12 9 -12 9 3 0 10 4 16 9 13 5 -3 11 1
14 9 4 9 1 12 -9 8 -7 -3 -14 -1 -14 5 0 9 20 9 40 2 3 -1 8 -2 13 -1 4 0 7
-3 7 -8 0 -5 15 5 32 22 18 18 32 34 31 38 -1 3 10 5 24 5 15 -1 28 5 30 14 4
12 3 12 -5 2 -7 -11 -11 -10 -16 4 -3 9 -4 19 -1 22 3 3 5 1 5 -5 0 -8 58 -10
68 -3 2 2 11 5 28 9 3 0 2 6 -1 12 -5 7 -13 5 -25 -6 -17 -16 -18 -16 -16 1 3
20 56 29 57 10 0 -6 4 -1 9 12 9 21 30 31 30 14 0 -5 7 -9 15 -9 8 0 15 4 15
9 0 5 5 6 12 2 7 -4 8 -3 4 4 -4 7 -2 20 4 29 9 14 10 14 7 2 -3 -9 1 -16 8
-16 8 0 12 9 9 21 -3 19 -2 20 10 4 7 -10 16 -15 19 -11 4 3 2 11 -3 18 -7 8
-5 12 5 12 8 0 12 -3 10 -7 -2 -3 0 -12 6 -20 9 -15 12 -5 12 43 0 9 4 17 8
17 5 0 7 -11 5 -24 -4 -24 14 -31 31 -11 4 4 2 5 -4 1 -7 -4 -13 -2 -13 5 0 6
8 9 20 6 11 -3 18 -1 14 4 -3 5 0 9 6 9 6 0 8 5 4 12 -4 7 -3 8 5 4 6 -4 9
-11 6 -16 -8 -12 21 -6 39 9 8 7 20 10 27 6 8 -5 9 0 4 16 -3 13 -3 19 2 13
13 -17 42 -24 49 -12 4 7 9 6 15 -3 7 -11 9 -11 9 -1 0 7 5 10 12 6 6 -4 8 -3
5 3 -4 6 1 17 10 24 9 8 14 9 10 3 -4 -7 1 -15 10 -18 20 -8 40 9 22 19 -8 5
-10 4 -5 -3 4 -7 2 -12 -4 -12 -7 0 -10 6 -7 13 2 6 11 11 20 9 12 -2 15 2 11
15 -5 15 -4 15 4 3 6 -8 8 -18 5 -24 -4 -5 -1 -6 7 -1 10 6 12 4 7 -9 -4 -10
-3 -15 4 -11 5 4 7 15 4 25 -7 21 10 36 21 19 5 -8 3 -9 -6 -4 -8 5 -11 4 -7
-3 6 -9 27 -9 47 -2 3 1 11 3 19 4 8 0 17 8 19 16 5 13 3 13 -11 1 -10 -7 -17
-10 -17 -6 0 4 -7 2 -15 -5 -9 -7 -15 -8 -15 -2 0 14 28 25 70 28 19 1 37 3
40 4 3 1 8 2 13 1 4 0 7 4 7 11 0 6 3 9 6 6 3 -4 0 -17 -7 -30 -11 -20 -10
-21 3 -11 8 7 19 9 23 5 5 -4 5 -1 1 6 -4 7 -1 12 8 12 9 0 16 -6 16 -12 0
-10 2 -10 9 0 4 8 11 13 15 13 24 -3 28 2 12 14 -11 8 -15 15 -9 15 18 0 44
-31 36 -43 -4 -7 1 -6 10 2 18 15 23 26 7 16 -5 -3 -10 -1 -10 4 0 16 22 13
50 -6 24 -16 24 -16 11 0 -11 15 -11 17 2 17 8 0 18 -6 21 -12 3 -7 4 1 1 17
-2 17 -2 24 1 17 3 -6 11 -9 17 -5 6 4 8 0 4 -10 -3 -9 -1 -19 5 -23 7 -5 8
-2 3 6 -6 10 -4 12 10 6 15 -5 16 -4 6 8 -17 20 2 28 25 10 10 -9 13 -13 7 -9
-9 4 -11 1 -6 -11 5 -15 7 -15 15 0 5 9 14 14 19 11 5 -4 6 -12 2 -18 -4 -7 2
-5 13 3 29 22 30 24 12 17 -10 -4 -18 -2 -18 4 0 6 9 9 20 6 11 -3 23 -1 26 4
8 14 26 0 17 -14 -3 -7 3 -3 15 7 12 11 25 16 29 13 3 -4 2 -7 -4 -7 -15 0
-24 -28 -12 -35 5 -4 8 -3 7 2 -3 9 5 13 28 13 9 0 12 -5 8 -12 -5 -9 -2 -9 9
1 18 14 22 22 10 20 -5 -1 -15 -1 -23 0 -13 1 -13 3 0 10 8 6 19 7 25 3 21
-14 37 -11 30 6 -5 13 -3 14 6 5 6 -6 8 -16 4 -22z m152 -3 c-3 -8 -6 -5 -6 6
-1 11 2 17 5 13 3 -3 4 -12 1 -19z m-497 0 c0 -11 -12 -10 -30 2 -12 7 -10 9
8 7 12 0 22 -5 22 -9z m743 -25 c-4 -10 -9 -11 -19 -2 -18 15 -18 15 5 15 11
0 17 -5 14 -13z m-1179 -55 c-10 -13 -20 -25 -21 -27 -1 -2 -1 6 0 17 0 11 4
19 8 16 4 -2 10 0 14 6 3 5 9 10 12 10 3 0 -2 -10 -13 -22z m-41 -29 c-8 -8
-13 -7 -18 2 -5 8 -4 10 3 5 7 -4 12 -2 12 5 0 7 3 9 7 6 4 -4 2 -12 -4 -18z
m-87 -16 c-1 -7 -5 -15 -9 -18 -4 -3 -5 -2 -2 2 3 3 -2 11 -11 17 -13 10 -13
12 4 12 11 0 19 -6 18 -13z m-215 -76 c-6 -8 -8 -17 -4 -20 3 -4 1 -7 -5 -7
-15 0 -15 13 0 28 16 16 23 15 9 -1z m-197 -106 c4 -5 -3 -7 -14 -4 -23 6 -26
13 -6 13 8 0 17 -4 20 -9z m-52 -44 c-28 -29 -62 -34 -36 -6 9 10 21 16 25 13
5 -3 12 2 15 11 4 9 9 13 12 10 3 -3 -4 -16 -16 -28z m-372 -251 c0 -2 -7 -9
-15 -16 -13 -11 -14 -10 -9 4 5 14 24 23 24 12z m-45 -16 c3 -5 1 -10 -4 -10
-6 0 -11 5 -11 10 0 6 2 10 4 10 3 0 8 -4 11 -10z m-61 -58 c2 -4 -5 -9 -17
-9 -17 -2 -19 0 -7 7 18 12 18 12 24 2z m-103 -115 c-10 -9 -11 -8 -5 6 3 10
9 15 12 12 3 -3 0 -11 -7 -18z m-134 -119 c-3 -8 -6 -5 -6 6 -1 11 2 17 5 13
3 -3 4 -12 1 -19z m-124 -143 c-3 -9 -8 -14 -10 -11 -3 3 -2 9 2 15 9 16 15
13 8 -4z m-29 -95 c-6 -6 -15 -5 -24 1 -13 9 -12 10 3 5 9 -3 17 0 17 6 0 6 3
8 7 5 4 -4 2 -12 -3 -17z m-206 -315 c-3 -3 -9 2 -12 12 -6 14 -5 15 5 6 7 -7
10 -15 7 -18z m-107 -218 c-10 -9 -11 -8 -5 6 3 10 9 15 12 12 3 -3 0 -11 -7
-18z m-26 -107 c-3 -5 -12 -10 -18 -10 -7 0 -6 4 3 10 19 12 23 12 15 0z m-82
-293 c3 -8 -1 -14 -8 -14 -7 0 -11 6 -8 14 3 7 6 13 8 13 2 0 5 -6 8 -13z
m-13 -91 c0 -3 -4 -8 -10 -11 -5 -3 -10 -1 -10 4 0 6 5 11 10 11 6 0 10 -2 10
-4z m5381 -1285 c-6 -10 -7 -21 -3 -25 3 -4 -2 -4 -13 0 -11 5 -14 9 -7 12 7
2 12 10 12 18 0 8 5 14 10 14 7 0 7 -6 1 -19z m-180 -424 c-10 -9 -11 -8 -5 6
3 10 9 15 12 12 3 -3 0 -11 -7 -18z m-7 -69 c-3 -4 -9 -8 -15 -8 -5 0 -9 4 -9
8 0 5 7 9 15 9 8 0 12 -4 9 -9z m-72 -90 c-8 -8 -9 -4 -5 13 4 13 8 18 11 10
2 -7 -1 -18 -6 -23z m-145 -270 c-3 -8 -6 -5 -6 6 -1 11 2 17 5 13 3 -3 4 -12
1 -19z m-67 -52 c0 -2 -8 -10 -17 -17 -16 -13 -17 -12 -4 4 13 16 21 21 21 13z
m-7 -51 c-3 -9 -8 -14 -10 -11 -3 3 -2 9 2 15 9 16 15 13 8 -4z m-69 -94 c3
-4 -4 -17 -17 -27 -12 -10 -19 -15 -15 -10 4 5 3 15 -3 23 -9 9 -8 13 0 13 6
0 11 -5 11 -11 0 -5 5 -7 10 -4 6 4 8 11 5 16 -4 5 -4 9 -1 9 3 0 7 -4 10 -9z
m-109 -121 c-3 -5 -13 -6 -21 -3 -12 4 -13 8 -3 14 15 9 32 2 24 -11z m-200
-170 c-3 -5 -14 -10 -23 -9 -14 0 -13 2 3 9 27 11 27 11 20 0z m-48 -65 c0 -8
-4 -12 -9 -9 -5 3 -6 10 -3 15 9 13 12 11 12 -6z m-197 -135 c-11 -21 -30 -19
-30 3 0 8 3 8 9 -1 7 -11 9 -11 14 2 4 9 9 16 12 16 3 0 1 -9 -5 -20z m-189
-137 c13 -16 12 -17 -3 -4 -13 9 -18 10 -18 2 0 -7 -5 -9 -11 -5 -8 4 -7 9 2
15 8 5 15 9 15 9 1 0 8 -8 15 -17z m-2861 -25 c0 -6 -6 -5 -15 2 -8 7 -15 14
-15 16 0 2 7 1 15 -2 8 -4 15 -11 15 -16z m2531 -121 c-10 -9 -11 -8 -5 6 3
10 9 15 12 12 3 -3 0 -11 -7 -18z m-2166 -47 c3 -5 -1 -10 -10 -10 -9 0 -13 5
-10 10 3 6 8 10 10 10 2 0 7 -4 10 -10z m165 -50 c12 -7 10 -9 -8 -7 -12 0
-22 5 -22 9 0 11 12 10 30 -2z m170 -44 c0 -2 -7 -7 -16 -10 -8 -3 -12 -2 -9
4 6 10 25 14 25 6z m1320 -30 c0 -3 -4 -8 -10 -11 -5 -3 -10 -1 -10 4 0 6 5
11 10 11 6 0 10 -2 10 -4z m-1060 -36 c6 -11 8 -20 6 -20 -3 0 -10 9 -16 20
-6 11 -8 20 -6 20 3 0 10 -9 16 -20z m960 11 c0 -6 -4 -13 -10 -16 -5 -3 -10
1 -10 9 0 9 5 16 10 16 6 0 10 -4 10 -9z m-192 -48 c-6 -8 -14 -11 -17 -7 -3
4 -1 9 6 11 7 2 9 12 6 21 -4 14 -3 15 5 2 8 -10 8 -18 0 -27z m-648 21 c0 -8
-19 -13 -24 -6 -3 5 1 9 9 9 8 0 15 -2 15 -3z m600 -14 c0 -5 -4 -10 -10 -10
-5 0 -10 5 -10 10 0 6 5 10 10 10 6 0 10 -4 10 -10z"/>
<path d="M2784 5589 c-3 -6 -2 -15 3 -20 5 -5 9 -1 9 11 0 23 -2 24 -12 9z"/>
<path d="M3030 5589 c0 -5 5 -7 10 -4 6 3 10 8 10 11 0 2 -4 4 -10 4 -5 0 -10
-5 -10 -11z"/>
<path d="M2991 5587 c2 -1 13 -9 24 -17 19 -14 19 -14 6 3 -7 9 -18 17 -24 17
-6 0 -8 -1 -6 -3z"/>
<path d="M3165 5580 c-3 -4 2 -14 11 -21 8 -7 14 -8 13 -3 -4 20 2 26 15 15
10 -8 16 -9 21 -1 4 6 3 10 -2 9 -4 -1 -10 0 -13 1 -18 7 -41 7 -45 0z"/>
<path d="M2395 5549 c-4 -6 -14 -8 -24 -4 -13 5 -14 4 -3 -6 10 -11 15 -10 29
4 10 9 14 17 11 17 -4 0 -10 -5 -13 -11z"/>
<path d="M3606 5488 c3 -4 9 -8 15 -8 5 0 9 4 9 8 0 5 -7 9 -15 9 -8 0 -12 -4
-9 -9z"/>
<path d="M1760 5341 c0 -6 4 -13 10 -16 6 -3 7 1 4 9 -7 18 -14 21 -14 7z"/>
<path d="M4173 5255 c0 -8 4 -12 9 -9 5 3 6 10 3 15 -9 13 -12 11 -12 -6z"/>
<path d="M4570 4986 c0 -2 7 -7 16 -10 8 -3 12 -2 9 4 -6 10 -25 14 -25 6z"/>
<path d="M1070 4870 c0 -5 5 -10 11 -10 5 0 7 5 4 10 -3 6 -8 10 -11 10 -2 0
-4 -4 -4 -10z"/>
<path d="M1265 4519 c-17 -5 -49 -24 -72 -44 -79 -67 -73 51 -73 -1505 0
-1449 -1 -1412 42 -1469 10 -13 15 -27 12 -32 -3 -5 -2 -8 3 -7 14 4 53 -13
53 -22 0 -5 -8 -7 -17 -4 -14 5 -15 4 -4 -4 8 -5 24 -9 37 -7 15 1 24 -3 24
-11 0 -8 7 -14 16 -14 8 0 12 -4 9 -10 -3 -5 -1 -10 4 -10 14 0 14 13 0 27 -9
9 -7 11 7 8 11 -1 18 -9 16 -16 -1 -8 5 -5 14 6 14 16 16 17 11 3 -8 -22 6
-23 27 -2 19 18 22 4 4 -15 -11 -12 -10 -13 6 -7 11 4 29 0 42 -9 13 -9 24
-11 24 -6 0 5 -5 11 -12 13 -6 2 -12 12 -14 21 -1 9 2 15 7 11 5 -3 7 -11 3
-17 -3 -7 2 -3 11 8 16 19 16 19 13 1 -2 -10 3 -21 10 -23 8 -3 10 2 6 14 -5
16 -4 16 8 3 7 -9 20 -15 28 -15 8 0 21 -6 28 -15 11 -13 11 -12 3 7 -16 32
-12 52 4 23 13 -22 20 -21 16 3 -1 5 3 6 9 2 5 -3 10 -1 10 6 0 7 3 10 6 7 3
-4 0 -17 -7 -30 -11 -20 -10 -22 3 -10 9 7 23 10 31 6 12 -4 15 -1 12 16 -3
17 -1 19 9 11 9 -7 16 -7 26 2 10 9 11 9 5 -1 -8 -16 25 -13 38 3 5 6 7 4 4
-5 -2 -8 -9 -14 -15 -13 -5 1 -16 -5 -24 -15 -11 -15 -11 -16 3 -5 12 10 18
10 29 0 9 -9 11 -9 6 0 -4 7 0 12 11 11 10 0 27 3 37 7 14 6 17 5 12 -3 -5 -8
-2 -10 8 -6 9 3 13 10 10 15 -3 5 3 6 12 2 13 -5 15 -3 9 7 -6 9 -4 11 5 5 10
-6 8 -13 -11 -28 -20 -17 -20 -19 -4 -12 11 4 25 8 32 8 6 0 9 6 6 14 -4 9 0
11 11 7 10 -4 16 -1 16 7 0 7 3 9 6 6 4 -4 2 -13 -5 -21 -10 -11 -7 -14 11
-14 13 0 34 -3 48 -6 18 -5 20 -4 6 2 -23 10 -32 44 -9 35 12 -5 12 -7 1 -15
-9 -7 -8 -8 5 -4 10 3 21 6 23 6 3 0 2 5 -2 12 -4 7 -3 8 4 4 6 -4 8 -14 5
-24 -3 -9 -3 -14 2 -10 4 4 14 0 22 -10 13 -15 13 -15 4 5 -6 12 -11 28 -10
35 0 7 5 3 11 -9 14 -30 34 -35 50 -15 11 15 11 16 -3 4 -14 -10 -18 -10 -23
4 -9 24 -7 31 4 14 9 -13 11 -13 20 0 8 12 10 12 10 1 0 -11 3 -11 18 0 14 11
15 11 4 -1 -6 -8 -12 -23 -12 -34 0 -19 2 -18 13 4 8 15 20 24 31 22 12 -2 16
1 10 9 -4 8 -3 10 4 5 6 -4 8 -14 5 -24 -3 -9 -3 -14 2 -10 4 4 14 0 22 -10
13 -15 13 -15 4 5 -6 12 -11 28 -10 35 0 7 5 3 11 -9 14 -30 34 -35 50 -15 11
15 11 16 -3 4 -14 -10 -18 -10 -23 4 -9 24 -7 31 4 14 9 -13 11 -13 20 0 8 12
10 12 10 1 0 -11 3 -11 18 0 14 11 15 11 5 -1 -7 -8 -13 -23 -13 -34 0 -19 2
-18 13 4 8 15 20 24 31 22 12 -2 16 1 10 9 -4 8 -3 10 4 5 6 -4 8 -14 5 -24
-3 -9 -3 -14 2 -10 4 4 14 0 22 -10 13 -15 13 -15 4 5 -6 12 -11 28 -10 35 0
7 5 3 11 -9 14 -30 34 -35 50 -15 11 15 11 16 -3 4 -14 -10 -18 -10 -23 4 -9
24 -7 31 4 14 9 -13 11 -13 20 0 8 12 10 12 10 1 0 -11 3 -11 18 0 14 11 15
11 5 -1 -7 -8 -13 -23 -13 -34 0 -19 2 -18 13 4 8 15 20 24 31 22 12 -2 16 1
10 9 -4 8 -3 10 4 5 6 -4 8 -14 5 -24 -3 -9 -3 -14 2 -10 4 4 14 0 22 -10 13
-15 13 -15 4 5 -6 12 -11 28 -10 35 0 7 5 3 11 -9 14 -30 34 -35 50 -15 11 15
11 16 -3 4 -14 -10 -18 -10 -23 4 -9 24 -7 31 4 14 9 -13 11 -13 20 0 8 12 10
12 10 1 0 -11 3 -11 18 0 14 11 15 11 5 -1 -7 -8 -13 -23 -12 -34 0 -15 2 -17
6 -6 3 8 14 23 25 34 18 17 19 17 16 1 -2 -10 3 -20 10 -22 8 -3 10 2 6 14 -5
16 -4 16 8 3 7 -9 20 -15 28 -15 8 0 21 -6 28 -15 11 -13 11 -12 3 7 -16 32
-12 52 4 23 13 -22 20 -21 16 3 -1 5 3 6 9 2 5 -3 10 -1 10 6 0 7 3 10 6 7 3
-4 0 -17 -7 -30 -11 -20 -10 -22 3 -10 9 7 23 10 31 6 12 -4 15 -1 12 16 -3
17 -1 19 9 11 9 -7 16 -7 26 2 10 9 11 9 5 -1 -8 -16 25 -13 38 3 5 6 7 4 4
-5 -2 -8 -9 -15 -15 -15 -6 0 -17 -7 -24 -15 -11 -12 -11 -12 3 -2 12 9 19 9
29 -1 9 -9 11 -9 6 0 -4 7 0 12 11 11 10 0 27 3 37 7 14 6 17 5 12 -3 -5 -8
-2 -10 8 -6 9 3 13 10 10 15 -3 5 3 6 12 2 13 -5 15 -3 9 7 -6 9 -4 11 5 5 10
-6 8 -13 -11 -28 -20 -17 -20 -19 -4 -12 11 4 25 8 32 8 6 0 9 6 6 14 -4 9 0
11 11 7 10 -4 16 -1 16 7 0 7 3 9 6 6 4 -4 1 -14 -7 -24 -12 -15 -12 -16 5
-10 11 5 28 1 42 -8 13 -9 24 -11 24 -6 0 5 -5 11 -12 13 -6 2 -12 12 -14 21
-1 9 2 15 7 11 5 -3 7 -11 3 -17 -3 -7 2 -3 11 8 16 19 16 19 13 1 -2 -10 3
-21 10 -23 8 -3 10 2 6 14 -5 16 -4 16 8 3 7 -8 20 -16 28 -18 12 -3 13 -1 3
9 -7 7 -13 17 -13 22 0 5 7 1 16 -8 9 -8 13 -23 10 -33 -5 -14 -3 -14 9 2 12
16 12 22 2 35 -11 14 -10 14 6 2 16 -13 20 -13 29 0 8 12 9 11 5 -2 -3 -9 3
-23 14 -32 10 -9 19 -13 19 -7 0 5 -4 12 -10 15 -5 3 -10 11 -10 16 0 6 4 8 9
5 5 -4 12 0 15 6 3 7 4 4 3 -6 -1 -10 4 -21 11 -23 8 -3 10 2 6 14 -5 16 -4
16 8 3 7 -9 20 -15 28 -15 8 0 21 -6 28 -15 11 -13 11 -12 3 7 -16 32 -12 52
4 23 13 -22 20 -21 16 3 -1 5 3 6 9 2 5 -3 10 -1 10 6 0 7 3 10 6 7 3 -4 0
-17 -7 -30 -11 -20 -10 -22 3 -10 9 7 23 10 31 6 13 -4 15 -1 12 17 -3 17 -2
20 7 11 9 -9 15 -9 27 1 12 10 13 9 7 -1 -10 -16 24 -13 37 3 5 6 7 4 4 -5 -2
-8 -9 -14 -15 -13 -5 1 -16 -5 -24 -15 -11 -15 -11 -16 3 -5 12 10 18 10 29 0
9 -9 11 -9 6 0 -4 7 0 12 11 11 10 0 26 3 35 7 14 5 16 2 13 -14 -2 -12 0 -19
6 -16 5 4 6 11 3 17 -4 6 2 8 17 4 20 -6 21 -5 7 4 -10 6 -18 16 -18 23 0 8 3
8 8 2 10 -14 42 -18 42 -5 0 6 -4 8 -10 5 -14 -9 -12 8 3 24 6 8 8 11 2 9 -5
-3 -16 0 -23 8 -7 8 -9 14 -4 14 13 0 11 30 -2 30 -6 0 -4 5 5 10 9 5 15 21
14 37 -1 15 3 31 8 34 5 4 -9 25 -31 48 l-39 41 -1066 0 c-948 0 -1066 2
-1071 16 -3 8 -2 13 3 10 5 -3 11 3 14 14 3 11 0 23 -5 27 -7 3 -8 1 -4 -5 4
-7 3 -12 -2 -12 -6 0 -9 11 -8 24 1 18 4 22 14 14 10 -8 11 -6 6 8 -4 10 -12
25 -18 33 -6 8 -6 12 -1 9 6 -3 16 0 23 8 9 10 9 14 1 14 -6 0 -9 7 -5 15 3 9
0 15 -9 15 -8 0 -15 4 -15 9 0 5 10 7 22 3 19 -5 20 -4 7 10 -7 9 -16 14 -19
13 -3 -2 -6 5 -6 15 0 14 3 16 13 8 11 -8 12 -7 7 8 -4 10 -12 25 -18 33 -8
11 -8 13 1 8 6 -4 13 -4 16 0 2 5 2 1 0 -7 -3 -12 -2 -12 8 -3 10 10 9 16 -1
28 -12 14 -11 18 1 26 8 5 9 9 4 9 -6 0 -11 9 -12 21 -2 18 0 19 15 7 16 -12
16 -11 2 7 -37 49 -46 87 -13 54 8 -8 13 -8 18 0 3 6 1 10 -6 9 -6 -2 -14 3
-17 11 -3 9 0 11 8 6 9 -5 11 -4 6 4 -5 8 -12 9 -20 2 -8 -7 -12 -5 -12 8 0
13 6 17 21 14 20 -4 20 -4 -1 9 -16 10 -20 23 -19 55 0 23 5 46 9 50 5 5 6 2
1 -6 -6 -10 -4 -12 5 -6 9 5 11 4 6 -3 -12 -20 -16 -54 -7 -70 6 -10 10 -11
15 -3 4 6 2 11 -4 11 -13 0 -5 46 12 68 10 12 10 14 0 8 -7 -4 -15 -1 -18 8
-3 9 -10 13 -15 10 -5 -3 -6 2 -3 10 5 12 11 13 27 5 20 -9 20 -9 5 4 -19 15
-25 43 -8 32 6 -4 1 10 -10 30 l-20 36 22 -12 c20 -11 22 -11 10 3 -8 10 -9
19 -3 22 11 7 9 25 -3 45 -5 8 -3 16 5 22 10 6 11 9 2 9 -7 0 -13 10 -13 21 0
19 2 20 18 8 13 -11 12 -8 -3 9 -16 20 -17 25 -5 34 13 8 12 9 -2 5 -9 -4 -19
1 -22 10 -4 10 -2 14 8 10 11 -4 13 -1 9 11 -6 15 -5 16 13 2 18 -14 18 -14 5
3 -9 11 -17 14 -25 8 -8 -7 -12 -4 -12 8 0 13 6 17 21 14 11 -2 14 0 7 3 -9 4
-10 10 -3 18 12 14 -4 45 -16 32 -4 -5 -2 -11 5 -13 12 -5 7 -23 -7 -23 -11 0
-7 87 4 97 4 4 5 2 0 -6 -6 -10 -4 -12 4 -6 10 6 11 3 2 -14 -16 -30 -7 -26
14 5 9 15 12 23 6 20 -6 -4 -14 0 -17 8 -3 9 -10 13 -15 10 -5 -3 -6 2 -3 10
5 12 11 13 27 5 20 -9 20 -9 5 4 -19 15 -25 43 -8 32 6 -4 1 10 -10 30 l-20
36 22 -12 c20 -11 22 -11 10 3 -8 10 -9 19 -3 22 11 7 9 25 -3 45 -5 8 -3 16
5 22 10 6 11 9 2 9 -7 0 -13 10 -13 21 0 19 2 20 18 8 13 -11 12 -8 -3 9 -16
20 -17 25 -5 34 13 8 12 9 -2 5 -9 -4 -19 1 -22 10 -4 10 -2 14 8 10 11 -4 13
-1 9 11 -6 15 -5 16 13 2 18 -14 18 -14 5 3 -9 11 -17 14 -25 8 -8 -7 -12 -4
-12 8 0 13 6 17 21 14 11 -2 14 0 7 3 -9 4 -10 10 -3 18 12 14 -4 45 -16 32
-4 -5 -2 -11 5 -13 12 -5 7 -23 -7 -23 -11 0 -7 87 4 97 4 4 5 2 0 -6 -6 -10
-4 -12 4 -6 10 6 11 3 2 -14 -16 -30 -7 -26 14 5 9 15 12 23 6 20 -6 -4 -14 0
-17 8 -3 9 -10 13 -15 10 -5 -3 -6 2 -3 10 5 12 11 13 27 5 20 -9 20 -9 5 4
-19 15 -25 43 -8 32 6 -4 1 10 -10 30 l-20 36 22 -12 c20 -11 22 -11 10 3 -8
10 -9 19 -3 22 11 7 9 25 -3 45 -5 8 -3 16 5 22 10 6 11 9 2 9 -7 0 -13 10
-13 21 0 19 2 20 18 8 13 -11 12 -8 -3 9 -16 20 -17 25 -5 34 13 8 12 9 -2 5
-9 -4 -19 1 -22 10 -4 10 -2 14 8 10 11 -4 13 -1 9 11 -6 15 -5 16 13 2 18
-14 18 -14 5 3 -9 11 -17 14 -25 8 -8 -7 -12 -4 -12 8 0 13 6 17 21 14 11 -2
14 0 7 3 -9 4 -10 9 -2 19 8 9 8 15 0 20 -5 3 -10 17 -10 31 0 14 4 23 8 20 5
-3 9 1 9 9 0 8 -2 13 -5 11 -2 -3 -10 0 -17 7 -9 9 -7 16 14 32 14 11 27 18
30 17 2 -2 8 2 12 10 7 10 9 10 9 0 0 -7 4 -11 9 -7 5 3 12 1 15 -3 3 -5 -7
-8 -22 -7 -32 2 -44 -3 -36 -16 3 -5 11 -6 17 -2 21 13 118 12 110 -1 -3 -7
-1 -6 8 2 16 15 33 16 23 0 -4 -6 -3 -8 4 -5 5 4 8 17 6 30 -4 16 -1 14 10 -8
13 -26 14 -27 15 -8 1 12 5 25 11 28 6 4 7 -1 3 -11 -4 -12 -2 -15 8 -12 8 3
22 -2 32 -11 17 -15 20 -14 33 4 12 16 18 14 16 -5 -1 -13 37 -7 42 6 4 10 2
12 -6 8 -7 -5 -8 -3 -3 5 5 9 13 7 30 -9 22 -21 24 -21 33 -3 11 20 48 28 58
12 3 -6 -5 -8 -19 -5 -16 3 -24 -1 -24 -10 0 -10 4 -11 14 -3 8 8 13 8 13 1 0
-11 25 -10 36 1 12 12 26 8 18 -5 -4 -7 -3 -8 5 -4 9 6 9 11 -1 24 -11 13 -11
15 2 7 8 -4 23 -14 32 -22 14 -13 18 -12 26 4 11 20 48 28 58 12 3 -6 -5 -8
-19 -5 -16 3 -24 -1 -24 -10 0 -10 4 -11 14 -3 8 8 13 8 13 1 0 -11 25 -10 36
1 12 12 26 8 18 -5 -5 -7 -3 -8 7 -2 22 13 120 14 112 0 -3 -7 -1 -6 8 2 16
15 33 16 23 0 -4 -6 -3 -8 4 -5 5 4 8 17 6 30 -4 16 -1 14 10 -8 13 -26 14
-27 15 -8 1 12 5 25 11 28 6 4 7 -1 3 -11 -4 -12 -2 -15 8 -12 8 3 22 -2 32
-11 17 -15 20 -14 33 4 12 16 18 14 16 -5 -1 -13 37 -7 42 6 4 10 2 12 -6 8
-7 -5 -8 -3 -3 5 5 9 13 7 30 -9 22 -21 24 -21 33 -3 11 20 48 28 58 12 3 -6
-5 -8 -19 -5 -16 3 -24 -1 -24 -10 0 -10 4 -11 14 -3 8 8 13 8 13 1 0 -11 25
-10 36 1 12 12 26 8 18 -5 -5 -7 -3 -8 7 -2 22 13 120 14 112 0 -3 -7 -1 -6 8
2 7 6 17 12 22 12 4 0 5 -6 1 -12 -6 -10 -4 -10 7 0 16 15 33 16 23 0 -4 -7
-3 -8 5 -4 9 6 9 12 -1 24 -12 15 -11 16 4 4 9 -8 21 -11 26 -8 6 3 15 -1 22
-9 15 -19 26 -19 33 -2 3 8 -1 14 -9 14 -7 0 -10 -5 -7 -10 4 -6 1 -7 -6 -3
-12 8 -7 21 7 21 4 0 13 4 21 9 9 6 12 5 8 -1 -4 -6 3 -19 14 -29 20 -18 21
-18 31 -1 9 17 11 17 28 2 17 -16 19 -15 28 2 11 20 48 28 58 12 3 -6 -5 -8
-19 -5 -16 3 -24 -1 -24 -10 0 -10 4 -11 14 -3 8 8 13 8 13 1 0 -11 25 -10 36
1 12 12 26 8 18 -5 -5 -7 -3 -8 7 -2 22 13 120 14 112 0 -3 -7 -1 -6 8 2 16
15 33 16 23 0 -4 -6 -3 -8 4 -5 5 4 8 17 6 30 -4 16 -1 14 10 -8 13 -26 14
-27 15 -8 1 12 5 25 11 28 6 4 7 -1 3 -11 -4 -12 -2 -15 8 -12 8 3 22 -2 32
-11 17 -15 20 -14 33 4 12 16 18 14 16 -5 -1 -13 37 -7 42 6 4 10 2 12 -6 8
-7 -5 -8 -3 -3 5 5 9 13 7 30 -9 22 -21 24 -21 33 -3 11 20 48 28 58 12 3 -6
-5 -8 -19 -5 -16 3 -24 -1 -24 -10 0 -10 4 -11 14 -3 8 8 13 8 13 1 0 -11 25
-10 36 1 12 12 26 8 18 -5 -5 -7 -3 -8 7 -2 22 13 120 14 112 0 -3 -7 -1 -6 8
2 7 6 17 12 22 12 4 0 5 -6 1 -12 -6 -10 -4 -10 7 0 16 15 33 16 23 0 -4 -7
-3 -8 5 -4 9 6 9 12 -1 24 -12 15 -11 16 4 4 9 -8 21 -11 26 -8 6 3 15 -1 22
-9 15 -19 26 -19 33 -2 3 8 -1 14 -9 14 -7 0 -10 -5 -7 -10 3 -6 1 -7 -6 -3
-6 4 -9 12 -5 17 3 6 9 8 12 5 3 -3 12 0 21 6 9 7 13 8 8 3 -8 -9 20 -45 35
-45 5 0 7 10 4 23 -3 12 -3 16 0 10 3 -7 15 -13 25 -13 13 0 18 -4 13 -12 -6
-10 -4 -10 7 0 17 16 32 16 23 0 -6 -10 -5 -10 7 -1 12 10 18 10 28 0 9 -9 14
-9 21 3 6 8 8 21 5 28 -3 7 0 10 6 6 6 -3 9 -15 6 -25 -7 -26 2 -24 13 4 6 15
9 17 9 5 1 -12 7 -15 23 -10 16 4 19 2 13 -9 -6 -11 -5 -12 6 -1 7 6 17 12 22
12 4 0 5 -6 1 -12 -6 -10 -4 -10 7 0 16 15 33 16 23 0 -4 -7 -3 -8 5 -4 9 6 9
12 -1 24 -11 15 -11 15 3 4 9 -7 21 -12 25 -11 5 1 24 1 42 0 23 -1 31 -5 26
-13 -6 -10 -4 -10 7 0 16 15 33 16 23 0 -4 -6 -3 -8 4 -5 5 4 8 17 6 30 -4 16
-1 14 10 -8 8 -16 15 -24 15 -17 1 6 10 12 21 12 20 0 20 -7 20 -680 0 -673 0
-680 20 -680 15 0 20 -7 21 -27 1 -17 3 -21 6 -10 2 9 9 17 15 17 5 0 7 -7 4
-16 -5 -14 -4 -15 9 -4 13 11 14 10 9 -4 -4 -12 -2 -15 9 -10 8 3 18 0 23 -7
5 -8 3 -10 -7 -5 -8 4 -6 1 3 -7 10 -8 15 -16 12 -19 -3 -3 9 -4 25 -3 17 1
28 -1 25 -6 -3 -5 -9 -7 -14 -4 -5 3 -12 1 -15 -5 -4 -6 -3 -10 2 -9 21 4 34
-2 27 -13 -4 -7 -3 -8 5 -4 6 4 8 13 5 19 -4 7 -3 9 1 4 5 -4 18 -1 31 7 12 8
25 12 28 9 4 -4 13 -8 22 -9 11 -2 12 1 4 11 -16 19 -20 54 -8 61 7 4 8 2 4
-4 -5 -8 -1 -10 9 -6 14 6 13 9 -6 27 -20 18 -20 21 -5 32 19 15 21 29 2 22
-11 -4 -11 -1 -2 18 7 16 13 20 18 12 6 -9 8 -9 8 0 0 20 -18 24 -29 6 -9 -16
-10 -16 -8 4 0 12 4 20 8 17 4 -2 12 3 19 11 11 13 10 14 -3 10 -19 -8 -33 13
-18 28 9 9 10 7 5 -7 -5 -14 -4 -17 5 -12 6 4 10 15 9 24 -2 10 3 16 10 14 8
-1 11 2 7 8 -4 7 -12 7 -26 0 -11 -6 -19 -7 -19 -1 0 5 7 11 15 15 11 4 14 14
9 33 -4 22 -3 25 5 13 7 -9 11 -10 11 -3 0 20 -18 24 -29 6 -9 -16 -10 -16 -8
4 0 12 4 20 8 17 4 -2 12 3 19 11 11 13 10 14 -3 10 -19 -8 -33 13 -18 28 9 9
11 7 5 -8 -5 -15 -4 -17 5 -9 13 12 4 47 -10 38 -5 -3 -9 -1 -9 4 0 6 7 12 15
16 18 6 20 33 3 38 -6 2 -12 14 -13 25 -1 14 3 19 12 16 7 -3 13 -1 13 5 0 5
-6 12 -14 15 -15 6 -16 31 -1 44 4 4 5 2 1 -4 -5 -9 -2 -11 8 -7 12 5 13 9 3
19 -7 7 -15 11 -19 8 -5 -2 -8 1 -8 6 0 6 7 11 15 11 8 0 15 -5 15 -12 0 -6 3
-8 6 -5 10 10 -17 38 -29 30 -6 -3 -7 -1 -3 6 4 6 11 9 16 6 5 -3 12 0 16 6 4
8 3 9 -4 5 -7 -4 -12 -2 -12 3 0 6 5 11 10 11 6 0 5 6 -2 14 -7 8 -17 11 -22
8 -5 -3 -6 0 -2 6 4 6 14 9 24 6 14 -5 14 -3 -2 10 -23 18 -30 57 -9 49 7 -3
13 0 13 6 0 6 -4 11 -9 11 -5 0 -7 10 -4 23 4 18 3 19 -6 7 -6 -8 -11 -11 -11
-6 0 6 10 21 23 34 20 23 21 24 2 14 -17 -9 -21 -7 -22 9 -1 10 2 21 8 24 5 4
6 -2 2 -12 -4 -13 -3 -15 6 -7 13 12 4 47 -10 38 -16 -9 -10 8 7 20 11 9 13
17 5 36 -5 14 -10 19 -10 11 -1 -8 -4 -11 -8 -8 -3 4 4 19 18 33 21 23 21 25
4 16 -17 -9 -21 -7 -22 9 -1 10 2 21 8 24 5 4 6 -2 2 -12 -4 -13 -3 -15 6 -7
13 12 4 47 -10 38 -5 -3 -9 -1 -9 4 0 6 7 12 15 16 18 6 20 33 3 38 -6 2 -12
14 -13 25 -1 14 3 19 12 16 7 -3 13 -1 13 5 0 5 -6 12 -14 15 -15 6 -16 31 -1
44 4 4 5 2 1 -4 -5 -9 -2 -11 8 -7 12 5 13 9 3 19 -7 7 -15 11 -19 8 -5 -2 -8
1 -8 6 0 6 7 11 15 11 8 0 15 -5 15 -12 0 -6 3 -8 6 -5 10 10 -17 38 -29 30
-6 -3 -7 -1 -3 6 4 6 11 9 16 6 5 -3 12 0 16 6 4 8 3 9 -4 5 -7 -4 -12 -2 -12
3 0 6 5 11 10 11 6 0 5 6 -2 14 -7 8 -17 11 -22 8 -5 -3 -6 0 -2 6 4 6 14 9
24 6 14 -5 14 -3 -2 10 -23 18 -30 57 -9 49 7 -3 13 0 13 6 0 6 -4 11 -9 11
-5 0 -7 10 -4 23 4 18 3 19 -6 7 -6 -8 -11 -11 -11 -6 0 6 10 21 22 34 21 23
22 24 3 14 -17 -9 -21 -7 -22 9 -1 10 2 21 8 24 5 4 6 -2 2 -12 -4 -13 -3 -15
6 -7 13 12 4 47 -10 38 -16 -9 -10 8 7 20 11 9 13 17 5 36 -5 14 -10 19 -10
11 -1 -8 -4 -11 -8 -8 -3 4 4 19 18 33 21 23 21 25 4 16 -17 -9 -21 -7 -22 9
-1 10 2 21 8 24 5 4 6 -2 2 -12 -4 -13 -3 -15 6 -7 13 12 4 47 -10 38 -5 -3
-9 -1 -9 4 0 6 7 12 15 16 18 6 20 33 3 38 -6 2 -12 14 -13 25 -1 14 3 19 12
16 7 -3 13 -1 13 5 0 5 -6 12 -14 15 -15 6 -16 31 -1 44 4 4 5 2 1 -4 -5 -9
-2 -11 8 -7 12 5 13 9 3 19 -7 7 -15 11 -19 8 -5 -2 -8 1 -8 6 0 6 7 11 15 11
8 0 15 -5 15 -12 0 -6 3 -8 6 -5 10 10 -17 38 -29 30 -6 -3 -7 -1 -3 6 4 6 11
9 16 6 5 -3 12 0 16 6 4 8 3 9 -4 5 -7 -4 -12 -2 -12 3 0 6 5 11 10 11 6 0 5
6 -2 14 -7 8 -17 11 -22 8 -5 -3 -6 0 -2 6 4 6 14 9 24 6 16 -5 16 -5 0 9 -10
8 -18 31 -20 54 -2 23 -6 39 -10 36 -5 -2 -8 3 -8 12 0 9 -19 36 -42 61 -73
78 44 73 -1668 72 -839 -1 -1539 -5 -1555 -9z m3295 -263 c0 -3 -4 -8 -10 -11
-5 -3 -10 -1 -10 4 0 6 5 11 10 11 6 0 10 -2 10 -4z m-1100 -10 c0 -2 -7 -7
-16 -10 -8 -3 -12 -2 -9 4 6 10 25 14 25 6z m66 -8 c4 -7 3 -8 -4 -4 -7 4 -12
2 -12 -4 0 -8 9 -10 24 -6 35 9 50 -17 51 -89 2 -85 -16 -107 -93 -113 -31 -2
-70 1 -86 7 -24 10 -27 15 -21 39 4 15 12 31 18 35 7 5 1 5 -13 1 -23 -6 -24
-5 -11 10 8 9 10 16 5 14 -5 -2 -9 2 -9 7 0 6 5 9 11 7 8 -2 11 7 8 27 -3 16
0 32 6 36 6 3 8 10 5 15 -3 5 0 12 7 16 7 4 10 4 6 0 -4 -5 -2 -14 4 -20 9
-10 16 -8 31 7 10 10 25 16 32 13 8 -3 17 -1 20 4 8 13 12 12 21 -2z m320 2
c17 7 23 7 19 0 -3 -5 -1 -18 5 -27 11 -16 11 -16 6 -1 -3 10 -1 20 4 23 9 6
14 -8 11 -28 -1 -5 3 -6 8 -2 6 3 7 13 4 22 -6 15 -5 16 9 3 9 -8 14 -18 11
-22 -2 -5 0 -8 5 -8 4 0 9 -30 10 -66 1 -57 -2 -69 -23 -90 -20 -20 -34 -24
-85 -24 -35 0 -60 4 -60 11 0 5 -3 8 -7 6 -16 -10 -30 20 -30 63 -1 25 -3 52
-4 60 -3 9 2 14 10 12 9 -2 12 4 8 18 -3 13 -1 18 6 13 6 -4 8 0 4 10 -4 12
-2 14 10 10 11 -5 14 -3 9 6 -10 15 34 -8 46 -24 5 -6 8 -5 8 3 0 7 5 10 10 7
6 -3 10 -1 10 5 0 6 -7 10 -16 8 -10 -2 -18 3 -20 10 -1 7 0 8 2 3 4 -6 14 -7
30 -1z m321 -5 c6 0 15 3 18 7 14 13 45 -11 38 -29 -6 -15 -5 -16 9 -3 12 12
13 18 4 30 -10 13 -9 13 9 0 38 -27 45 -44 45 -107 0 -54 -4 -68 -25 -88 -41
-42 -153 -32 -183 16 -11 17 -9 21 10 29 l23 9 -25 1 c-19 0 -22 2 -10 9 8 6
19 7 25 5 5 -3 -1 4 -14 15 -13 12 -18 21 -12 21 7 0 9 6 6 13 -4 6 1 3 9 -7
9 -11 16 -14 16 -8 0 7 -8 20 -19 31 -18 18 -18 19 12 17 19 -1 32 4 34 14 3
11 2 12 -4 3 -6 -9 -12 -6 -22 10 -13 20 -13 21 2 8 14 -11 18 -11 23 4 4 9
10 13 13 8 3 -5 11 -9 18 -8z m-2767 -460 c-7 -8 -17 -15 -23 -15 -6 0 -2 7 9
15 25 19 30 19 14 0z m333 -5 c3 -11 1 -18 -4 -14 -5 3 -9 12 -9 20 0 20 7 17
13 -6z m68 7 c-6 -8 -7 -18 -3 -22 4 -5 1 -5 -6 -1 -10 6 -10 11 -1 22 6 8 14
14 16 14 3 0 0 -6 -6 -13z m83 -17 c-6 -6 -10 -3 -10 10 0 13 4 16 10 10 7 -7
7 -13 0 -20z m77 17 c-6 -8 -7 -18 -3 -22 4 -5 1 -5 -6 -1 -10 6 -10 11 -1 22
6 8 14 14 16 14 3 0 0 -6 -6 -13z m83 -17 c-6 -6 -10 -3 -10 10 0 13 4 16 10
10 7 -7 7 -13 0 -20z m56 15 c5 3 11 1 14 -3 7 -12 -41 -9 -51 2 -4 5 -2 6 5
2 7 -4 12 -2 13 6 0 10 2 10 6 0 2 -6 9 -10 13 -7z m273 -5 c3 -11 1 -18 -4
-14 -5 3 -9 12 -9 20 0 20 7 17 13 -6z m68 7 c-6 -8 -7 -18 -3 -22 4 -5 1 -5
-6 -1 -10 6 -10 11 -1 22 6 8 14 14 16 14 3 0 0 -6 -6 -13z m83 -17 c-6 -6
-10 -3 -10 10 0 13 4 16 10 10 7 -7 7 -13 0 -20z m56 15 c5 3 11 1 14 -3 7
-12 -41 -9 -51 2 -4 5 -2 6 5 2 7 -4 12 -2 13 6 0 10 2 10 6 0 2 -6 9 -10 13
-7z m127 -7 c-3 -8 -6 -5 -6 6 -1 11 2 17 5 13 3 -3 4 -12 1 -19z m155 3 c7
11 9 11 6 1 -5 -17 -23 -17 -24 0 -1 9 1 8 4 -1 3 -12 5 -12 14 0z m59 6 c-6
-8 -7 -18 -3 -22 4 -5 1 -5 -6 -1 -10 6 -10 11 -1 22 6 8 14 14 16 14 3 0 0
-6 -6 -13z m83 -17 c-6 -6 -10 -3 -10 10 0 13 4 16 10 10 7 -7 7 -13 0 -20z
m56 15 c5 3 11 1 14 -3 7 -12 -41 -9 -51 2 -4 5 -2 6 5 2 7 -4 12 -2 13 6 0
10 2 10 6 0 2 -6 9 -10 13 -7z m273 -5 c3 -11 1 -18 -4 -14 -5 3 -9 12 -9 20
0 20 7 17 13 -6z m68 7 c-6 -8 -7 -18 -3 -22 4 -5 1 -5 -6 -1 -10 6 -10 11 -1
22 6 8 14 14 16 14 3 0 0 -6 -6 -13z m83 -17 c-6 -6 -10 -3 -10 10 0 13 4 16
10 10 7 -7 7 -13 0 -20z m56 15 c5 3 11 1 14 -3 7 -12 -41 -9 -51 2 -4 5 -2 6
5 2 7 -4 12 -2 13 6 0 10 2 10 6 0 2 -6 9 -10 13 -7z m127 -7 c-3 -8 -6 -5 -6
6 -1 11 2 17 5 13 3 -3 4 -12 1 -19z m146 2 c3 -11 1 -18 -4 -14 -5 3 -9 12
-9 20 0 20 7 17 13 -6z m94 -2 c-3 -8 -6 -5 -6 6 -1 11 2 17 5 13 3 -3 4 -12
1 -19z m37 -10 c-9 -14 -23 2 -17 18 4 12 8 13 14 3 4 -7 5 -17 3 -21z m123
10 c-3 -8 -6 -5 -6 6 -1 11 2 17 5 13 3 -3 4 -12 1 -19z m-2503 0 c-3 -4 -11
-5 -19 -1 -21 7 -19 12 4 10 11 0 18 -5 15 -9z m123 -14 c-9 -9 -28 6 -21 18
4 6 10 6 17 -1 6 -6 8 -13 4 -17z m517 14 c-3 -4 -11 -5 -19 -1 -21 7 -19 12
4 10 11 0 18 -5 15 -9z m123 -14 c-9 -9 -28 6 -21 18 4 6 10 6 17 -1 6 -6 8
-13 4 -17z m357 14 c-3 -4 -11 -5 -19 -1 -21 7 -19 12 4 10 11 0 18 -5 15 -9z
m480 0 c-3 -4 -11 -5 -19 -1 -21 7 -19 12 4 10 11 0 18 -5 15 -9z m123 -14
c-9 -9 -28 6 -21 18 4 6 10 6 17 -1 6 -6 8 -13 4 -17z m357 14 c-3 -4 -11 -5
-19 -1 -21 7 -19 12 4 10 11 0 18 -5 15 -9z m240 0 c-3 -4 -11 -5 -19 -1 -21
7 -19 12 4 10 11 0 18 -5 15 -9z m160 0 c-3 -4 -11 -5 -19 -1 -21 7 -19 12 4
10 11 0 18 -5 15 -9z m160 0 c-3 -4 -11 -5 -19 -1 -21 7 -19 12 4 10 11 0 18
-5 15 -9z m-2819 -58 c3 -5 1 -10 -4 -10 -6 0 -11 5 -11 10 0 6 2 10 4 10 3 0
8 -4 11 -10z m9 -81 c-8 -14 -21 -11 -21 5 0 8 6 12 14 9 7 -3 10 -9 7 -14z
m3166 -13 c0 -3 -4 -8 -10 -11 -5 -3 -10 -1 -10 4 0 6 5 11 10 11 6 0 10 -2
10 -4z m-3175 -106 c3 -5 1 -10 -4 -10 -6 0 -11 5 -11 10 0 6 2 10 4 10 3 0 8
-4 11 -10z m-1 -46 c3 -8 2 -12 -4 -9 -6 3 -10 10 -10 16 0 14 7 11 14 -7z m6
-39 c11 -13 10 -14 -4 -9 -9 3 -16 10 -16 15 0 13 6 11 20 -6z m4 -36 c-8 -14
-21 -11 -21 5 0 8 6 12 14 9 7 -3 10 -9 7 -14z m-11 -64 c4 -8 3 -16 -1 -19
-4 -3 -9 4 -9 15 -2 23 3 25 10 4z m2 -295 c3 -5 1 -10 -4 -10 -6 0 -11 5 -11
10 0 6 2 10 4 10 3 0 8 -4 11 -10z m-1 -46 c3 -8 2 -12 -4 -9 -6 3 -10 10 -10
16 0 14 7 11 14 -7z m3176 -8 c0 -3 -4 -8 -10 -11 -5 -3 -10 -1 -10 4 0 6 5
11 10 11 6 0 10 -2 10 -4z m-3170 -31 c11 -13 10 -14 -4 -9 -9 3 -16 10 -16
15 0 13 6 11 20 -6z m4 -36 c-8 -14 -21 -11 -21 5 0 8 6 12 14 9 7 -3 10 -9 7
-14z m-11 -64 c4 -8 3 -16 -1 -19 -4 -3 -9 4 -9 15 -2 23 3 25 10 4z m2 -295
c3 -5 1 -10 -4 -10 -6 0 -11 5 -11 10 0 6 2 10 4 10 3 0 8 -4 11 -10z m-1 -46
c3 -8 2 -12 -4 -9 -6 3 -10 10 -10 16 0 14 7 11 14 -7z m6 -39 c11 -13 10 -14
-4 -9 -9 3 -16 10 -16 15 0 13 6 11 20 -6z m4 -36 c-8 -14 -21 -11 -21 5 0 8
6 12 14 9 7 -3 10 -9 7 -14z m-11 -64 c4 -8 3 -16 -1 -19 -4 -3 -9 4 -9 15 -2
23 3 25 10 4z m3122 -55 c-3 -5 -12 -10 -18 -10 -7 0 -6 4 3 10 19 12 23 12
15 0z m-3120 -239 c3 -5 2 -12 -3 -15 -5 -3 -9 1 -9 9 0 17 3 19 12 6z m2 -46
c0 -8 -4 -12 -9 -9 -4 3 -8 9 -8 15 0 5 4 9 8 9 5 0 9 -7 9 -15z m-2 -35 c3
-5 1 -10 -4 -10 -6 0 -11 5 -11 10 0 6 2 10 4 10 3 0 8 -4 11 -10z m0 -160 c3
-5 1 -10 -4 -10 -6 0 -11 5 -11 10 0 6 2 10 4 10 3 0 8 -4 11 -10z m129 -426
c3 -8 2 -12 -4 -9 -6 3 -10 10 -10 16 0 14 7 11 14 -7z m217 -7 c-10 -9 -11
-8 -5 6 3 10 9 15 12 12 3 -3 0 -11 -7 -18z m903 7 c3 -8 2 -12 -4 -9 -6 3
-10 10 -10 16 0 14 7 11 14 -7z m217 -7 c-10 -9 -11 -8 -5 6 3 10 9 15 12 12
3 -3 0 -11 -7 -18z m423 7 c3 -8 2 -12 -4 -9 -6 3 -10 10 -10 16 0 14 7 11 14
-7z m217 -7 c-10 -9 -11 -8 -5 6 3 10 9 15 12 12 3 -3 0 -11 -7 -18z"/>
<path d="M3478 4223 c6 -2 9 -10 6 -15 -4 -7 -2 -8 5 -4 13 9 5 26 -12 25 -9
0 -8 -2 1 -6z"/>
<path d="M3546 4212 c-3 -5 1 -9 9 -9 8 0 12 4 9 9 -3 4 -7 8 -9 8 -2 0 -6 -4
-9 -8z"/>
<path d="M3406 4202 c-2 -4 -1 -14 4 -22 7 -11 9 -9 7 8 -1 24 -3 26 -11 14z"/>
<path d="M3770 4205 c-7 -9 -11 -17 -9 -20 3 -2 10 5 17 15 14 24 10 26 -8 5z"/>
<path d="M4190 4231 c0 -5 5 -13 10 -16 6 -3 10 -2 10 4 0 5 -4 13 -10 16 -5
3 -10 2 -10 -4z"/>
<path d="M4151 4214 c6 -7 16 -11 21 -8 11 7 3 17 -18 20 -12 2 -13 -1 -3 -12z"/>
<path d="M4080 4075 c0 -2 6 -8 13 -14 10 -8 14 -7 14 2 0 8 -6 14 -14 14 -7
0 -13 -1 -13 -2z"/>
<path d="M668 4403 c7 -3 16 -2 19 1 4 3 -2 6 -13 5 -11 0 -14 -3 -6 -6z"/>
<path d="M530 4171 c0 -6 4 -13 10 -16 6 -3 7 1 4 9 -7 18 -14 21 -14 7z"/>
<path d="M4558 4133 c7 -3 16 -2 19 1 4 3 -2 6 -13 5 -11 0 -14 -3 -6 -6z"/>
<path d="M4556 4082 c-3 -5 1 -9 9 -9 8 0 12 4 9 9 -3 4 -7 8 -9 8 -2 0 -6 -4
-9 -8z"/>
<path d="M4566 3917 c3 -10 9 -15 12 -12 3 3 0 11 -7 18 -10 9 -11 8 -5 -6z"/>
<path d="M4566 3757 c3 -10 9 -15 12 -12 3 3 0 11 -7 18 -10 9 -11 8 -5 -6z"/>
<path d="M4556 3682 c-3 -5 1 -9 9 -9 8 0 12 4 9 9 -3 4 -7 8 -9 8 -2 0 -6 -4
-9 -8z"/>
<path d="M283 3545 c0 -7 6 -11 14 -8 7 3 13 6 13 8 0 2 -6 5 -13 8 -8 3 -14
-1 -14 -8z"/>
<path d="M2960 3533 c-23 -9 -46 -43 -63 -93 -9 -25 -55 -166 -102 -315 -48
-148 -115 -358 -150 -465 -109 -333 -108 -330 -102 -367 4 -20 15 -46 27 -58
11 -12 18 -24 15 -27 -3 -3 5 -4 18 -3 17 2 24 -2 23 -13 -1 -13 7 -16 34 -14
33 2 34 2 16 -13 -11 -8 -15 -15 -9 -15 7 0 15 5 18 10 4 6 12 7 18 4 8 -5 8
-3 0 7 -18 18 -16 34 2 19 8 -7 15 -9 15 -4 0 5 4 3 9 -5 6 -10 9 -4 8 20 -2
31 0 34 23 31 24 -3 24 -2 6 13 -11 8 -14 15 -7 15 8 0 10 7 6 21 -6 19 -5 20
8 8 12 -11 12 -17 3 -29 -9 -13 -9 -13 6 -1 14 10 15 17 7 34 -9 17 -8 23 7
34 11 8 18 16 16 19 -1 2 5 19 15 37 19 36 25 59 13 52 -4 -3 -10 2 -13 10 -4
9 -1 12 7 9 8 -3 18 1 22 8 13 21 15 48 3 48 -5 0 -7 -4 -4 -10 4 -6 -1 -7
-11 -3 -10 4 -13 8 -7 10 7 3 10 10 7 17 -3 8 2 16 10 19 9 4 13 15 11 27 -3
13 0 18 7 14 8 -5 9 -1 4 12 -6 15 -5 17 5 7 7 -7 17 -13 23 -13 5 0 -1 9 -14
20 -13 11 -19 20 -14 20 6 0 16 -6 23 -12 10 -11 11 -10 5 5 -5 14 -2 16 12
11 11 -3 15 -2 9 3 -12 9 -13 23 -2 41 5 7 2 19 -7 28 -24 23 -19 26 17 9 17
-8 25 -10 15 -3 -15 11 -15 13 0 37 10 14 13 22 7 19 -5 -3 -16 1 -24 9 -12
13 -11 14 6 9 16 -5 21 -2 19 11 0 10 4 17 10 16 7 -1 11 3 11 10 -1 34 4 48
15 41 7 -5 8 -3 3 5 -8 13 -29 0 -31 -19 -1 -6 -2 -16 -3 -22 -1 -9 -4 -9 -11
2 -5 9 -5 19 0 26 6 6 6 15 2 19 -4 5 -2 5 4 2 7 -4 14 0 18 8 3 9 12 12 23 8
15 -6 16 -5 3 9 -12 12 -18 13 -30 4 -13 -10 -13 -9 -1 7 8 10 20 16 27 13 8
-3 13 0 11 7 -1 7 3 11 9 10 9 -2 9 4 0 22 -7 16 -17 23 -26 20 -8 -3 -4 3 10
14 13 11 28 17 32 15 4 -3 5 2 2 11 -5 13 -9 13 -23 3 -15 -12 -15 -11 -1 6 8
11 14 21 13 23 -9 11 0 23 16 23 21 0 36 26 20 35 -5 4 -8 1 -7 -6 2 -6 -4
-14 -12 -16 -9 -3 -11 -1 -5 4 15 12 17 43 3 43 -8 0 -6 5 5 11 9 6 15 14 12
20 -4 5 -1 9 6 9 8 0 8 5 -2 18 -11 14 -11 15 1 5 21 -19 35 -16 19 4 -10 11
-10 14 -1 9 8 -5 12 -1 12 13 0 10 -6 22 -12 25 -7 3 1 3 17 1 28 -4 28 -3 11
10 -10 7 -16 20 -13 27 4 10 6 10 6 1 1 -7 9 -13 19 -13 14 0 15 2 2 10 -12 7
-10 12 9 29 13 12 20 21 14 21 -5 0 -13 -3 -17 -7 -10 -11 -37 -12 -30 -2 3 5
10 6 16 3 8 -5 9 -1 5 11 -4 9 -2 24 4 31 6 7 7 19 3 26 -6 10 -3 9 9 -1 21
-17 22 -8 1 13 -10 10 -11 16 -3 16 8 0 8 5 -2 17 -12 15 -12 16 1 8 8 -5 3 4
-12 20 -16 15 -28 31 -28 35 0 22 -91 38 -130 23z m45 -573 c3 -6 -1 -7 -9 -4
-18 7 -21 14 -7 14 6 0 13 -4 16 -10z m-65 -208 c0 -13 -12 -22 -22 -16 -10 6
-1 24 13 24 5 0 9 -4 9 -8z m-27 -65 c9 5 9 3 0 -8 -6 -8 -12 -18 -12 -23 0
-6 -8 -11 -17 -12 -14 -2 -14 -1 -1 14 8 9 13 23 11 30 -1 7 0 8 3 2 2 -5 10
-7 16 -3z m-58 -217 c-3 -5 -12 -7 -20 -3 -21 7 -19 13 6 13 11 0 18 -4 14
-10z m-26 -68 c-7 -10 -18 -19 -27 -19 -12 0 -12 2 2 12 8 7 13 15 9 18 -3 4
1 7 10 7 14 0 15 -3 6 -18z m-39 -56 c0 -2 -8 -10 -17 -17 -16 -13 -17 -12 -4
4 13 16 21 21 21 13z"/>
<path d="M4558 3493 c7 -3 16 -2 19 1 4 3 -2 6 -13 5 -11 0 -14 -3 -6 -6z"/>
<path d="M4556 3442 c-3 -5 1 -9 9 -9 8 0 12 4 9 9 -3 4 -7 8 -9 8 -2 0 -6 -4
-9 -8z"/>
<path d="M3125 3369 c-4 -6 -5 -13 -2 -16 7 -7 27 6 27 18 0 12 -17 12 -25 -2z"/>
<path d="M4566 3277 c3 -10 9 -15 12 -12 3 3 0 11 -7 18 -10 9 -11 8 -5 -6z"/>
<path d="M2127 3100 c-165 -76 -305 -147 -313 -157 -32 -43 -29 -113 7 -152
11 -12 18 -25 15 -29 -3 -5 1 -9 9 -9 8 0 11 5 7 11 -3 6 5 3 18 -6 14 -9 24
-22 22 -29 -2 -10 0 -10 11 -1 11 10 17 9 27 -3 7 -8 17 -12 22 -9 6 4 8 -3 4
-17 -6 -20 -5 -21 4 -6 9 14 15 15 33 5 12 -7 24 -13 27 -13 3 0 16 -7 30 -15
14 -8 27 -15 30 -16 3 -1 15 -5 28 -9 14 -5 21 -13 18 -22 -4 -10 -1 -11 14
-3 15 8 22 5 37 -13 10 -12 30 -28 43 -36 23 -13 24 -13 11 3 -12 14 -12 16 3
10 14 -5 20 -16 18 -34 0 -3 9 -7 20 -7 11 -1 29 -10 39 -19 11 -9 19 -12 19
-6 0 6 -6 13 -12 15 -7 3 -2 6 11 6 16 1 22 -3 18 -14 -4 -8 -1 -17 5 -21 7
-4 8 -3 4 5 -5 8 2 11 23 9 16 -1 28 -5 27 -8 -2 -3 0 -14 5 -25 7 -18 8 -18
8 -2 1 10 6 15 11 12 6 -4 8 -9 6 -13 -2 -4 13 -7 35 -7 21 0 39 4 39 8 0 5 4
6 9 3 4 -3 16 1 26 8 21 15 31 57 12 52 -6 -1 -9 -1 -4 1 4 3 4 10 0 16 -4 7
6 3 22 -7 l30 -19 -25 28 c-14 16 -20 25 -14 22 12 -7 29 21 19 31 -3 3 -5 0
-5 -6 0 -7 -4 -12 -10 -12 -5 0 -7 7 -4 15 4 9 0 15 -7 16 -8 0 -5 4 6 9 11 5
14 9 6 9 -7 1 -22 12 -33 26 -11 15 -75 52 -147 86 -209 100 -212 101 -190
115 7 4 9 3 6 -3 -4 -6 0 -14 8 -17 12 -4 14 0 10 22 -3 15 -2 20 2 12 3 -8
12 -21 20 -29 12 -11 13 -9 8 15 -4 16 -3 24 2 18 9 -13 74 -14 66 -1 -2 4 -9
5 -14 2 -5 -4 -9 -2 -9 3 0 10 16 19 35 20 5 0 13 9 17 19 6 12 7 9 3 -9 -3
-16 -1 -28 5 -28 5 0 9 6 8 13 -2 7 7 12 23 12 23 -1 26 3 24 30 -1 30 0 31
42 30 27 -1 42 3 40 9 -3 7 8 11 27 10 36 -2 49 4 40 17 -3 5 -11 6 -17 2 -18
-11 -38 -12 -31 -2 3 5 9 7 14 4 4 -3 16 7 25 22 17 25 17 26 -1 20 -18 -7
-18 -6 -2 6 10 8 14 18 10 22 -4 5 0 6 10 2 17 -6 20 15 3 30 -4 4 -5 3 -2 -3
3 -6 0 -11 -8 -11 -12 0 -12 3 -2 15 9 12 9 16 0 19 -7 3 -13 9 -13 14 0 6 6
7 13 3 6 -4 1 5 -13 20 -31 34 -72 56 -102 56 -13 0 -157 -63 -321 -140z m270
-162 c-16 -9 -27 0 -21 17 5 11 9 12 19 2 9 -8 10 -14 2 -19z m-67 8 c0 -2 -8
-10 -17 -17 -16 -13 -17 -12 -4 4 13 16 21 21 21 13z m-44 -42 c1 -9 0 -13 -4
-10 -3 4 -7 14 -8 22 -1 9 0 13 4 10 3 -4 7 -14 8 -22z m5 -344 c10 0 19 -4
19 -10 0 -13 -43 4 -46 19 -1 6 0 7 3 1 2 -5 13 -10 24 -10z m210 -63 c-10 -9
-11 -8 -5 6 3 10 9 15 12 12 3 -3 0 -11 -7 -18z m59 18 c0 -2 -8 -9 -18 -14
-14 -7 -19 -6 -19 3 0 6 9 13 19 13 10 1 18 0 18 -2z"/>
<path d="M3158 3228 c-58 -24 -76 -144 -26 -179 11 -7 27 -20 34 -27 8 -7 14
-10 14 -6 0 3 7 1 15 -6 8 -7 12 -17 8 -24 -4 -6 0 -5 9 2 11 9 18 10 23 2 3
-6 11 -8 16 -5 5 3 6 -1 3 -9 -6 -16 4 -20 40 -16 13 1 17 -3 13 -14 -3 -8 -1
-18 5 -22 7 -4 8 -3 4 5 -5 8 -1 11 16 8 37 -6 58 -18 51 -29 -4 -7 4 -9 21
-6 17 3 26 1 26 -7 0 -7 8 -19 18 -26 15 -12 16 -12 5 2 -11 13 -10 15 5 14 9
0 18 -5 19 -10 2 -12 -29 -29 -197 -108 -74 -35 -144 -74 -155 -87 -29 -32
-27 -96 5 -140 14 -19 25 -38 25 -42 0 -3 4 -10 8 -15 5 -4 7 -2 5 6 -2 7 2
15 9 18 7 3 10 -5 9 -22 -3 -20 -1 -23 10 -14 8 6 12 15 9 19 -6 10 42 6 52
-4 5 -5 1 -6 -7 -1 -12 6 -12 5 -3 -5 9 -9 15 -8 31 8 11 11 18 22 16 25 -3 2
6 4 18 3 13 0 22 4 21 9 -1 6 7 12 18 12 10 1 19 -3 19 -9 0 -6 -3 -8 -7 -5
-3 4 -13 1 -22 -7 -9 -8 -19 -15 -23 -15 -5 -1 -8 -3 -8 -6 0 -3 0 -10 0 -16
0 -5 10 1 23 14 12 13 32 23 45 22 21 -2 21 0 7 22 -9 13 -11 23 -5 23 5 0 10
-4 10 -10 0 -5 7 -10 16 -10 9 0 12 -5 8 -12 -4 -7 -3 -8 4 -4 6 4 9 13 6 20
-3 8 3 12 18 11 35 -3 39 3 22 33 -9 15 -10 20 -3 11 19 -22 90 -22 87 0 -2 9
-7 19 -13 23 -6 5 -6 8 2 8 7 0 17 -8 22 -17 10 -17 10 -17 11 -1 0 21 16 32
26 17 5 -8 3 -9 -6 -4 -9 6 -11 4 -6 -4 6 -9 12 -9 25 3 14 13 20 13 31 3 10
-9 11 -9 6 1 -4 6 -2 12 3 12 6 0 11 5 11 11 0 8 -4 8 -14 0 -10 -9 -15 -8
-19 3 -4 10 -1 13 9 9 7 -3 14 0 14 6 0 12 32 3 42 -13 4 -6 6 3 4 21 -4 25
-1 31 11 26 12 -5 12 -7 1 -15 -9 -6 -5 -7 12 -4 37 6 60 17 60 27 0 6 -9 5
-20 -1 -11 -6 -20 -7 -20 -2 0 15 37 21 51 8 9 -8 10 -7 5 9 -4 11 -4 16 0 13
3 -4 15 2 26 12 11 10 27 16 36 13 12 -5 14 -1 10 20 -4 21 -2 25 7 17 15 -13
25 -3 18 18 -5 10 -3 13 6 8 10 -6 10 -4 0 12 -7 12 -16 19 -19 17 -4 -2 -7 2
-7 10 0 8 3 12 7 10 4 -2 7 2 7 10 0 8 -5 11 -10 8 -6 -4 -8 0 -4 10 3 9 3 16
-1 14 -4 -1 -8 2 -9 6 -3 12 -74 67 -86 67 -5 0 -33 11 -61 24 -488 231 -503
237 -558 214z m732 -392 c0 -2 -7 -7 -16 -10 -8 -3 -12 -2 -9 4 6 10 25 14 25
6z m-36 -44 c3 -5 -1 -9 -9 -9 -8 0 -12 4 -9 9 3 4 7 8 9 8 2 0 6 -4 9 -8z
m-239 -141 c3 -5 0 -13 -6 -17 -7 -4 -9 -3 -5 4 3 5 0 13 -6 15 -9 4 -10 6 -1
6 6 1 14 -3 18 -8z m-105 -42 c0 -5 4 -8 9 -4 5 3 12 1 15 -4 8 -13 -22 -7
-36 7 -9 9 -9 12 0 12 7 0 12 -5 12 -11z m-97 -44 c-3 -9 -8 -14 -10 -11 -3 3
-2 9 2 15 9 16 15 13 8 -4z m37 5 c0 -5 -2 -10 -4 -10 -3 0 -8 5 -11 10 -3 6
-1 10 4 10 6 0 11 -4 11 -10z"/>
<path d="M3063 3161 c-10 -16 -9 -22 4 -33 10 -7 14 -8 10 -1 -4 6 -1 14 5 16
10 4 9 6 -1 6 -11 1 -11 4 -1 16 7 8 8 15 4 15 -5 0 -15 -9 -21 -19z"/>
<path d="M4566 3117 c3 -10 9 -15 12 -12 3 3 0 11 -7 18 -10 9 -11 8 -5 -6z"/>
<path d="M228 3063 c7 -3 16 -2 19 1 4 3 -2 6 -13 5 -11 0 -14 -3 -6 -6z"/>
<path d="M3025 3061 c-3 -6 3 -9 14 -8 11 0 17 5 15 9 -7 11 -22 10 -29 -1z"/>
<path d="M2565 3051 c-3 -6 3 -9 14 -8 11 0 17 5 15 9 -7 11 -22 10 -29 -1z"/>
<path d="M4556 3042 c-3 -5 1 -9 9 -9 8 0 12 4 9 9 -3 4 -7 8 -9 8 -2 0 -6 -4
-9 -8z"/>
<path d="M3177 3003 c-4 -3 -7 -11 -7 -17 0 -6 5 -5 12 2 6 6 9 14 7 17 -3 3
-9 2 -12 -2z"/>
<path d="M3015 2990 c3 -5 8 -10 11 -10 2 0 4 5 4 10 0 6 -5 10 -11 10 -5 0
-7 -4 -4 -10z"/>
<path d="M220 2986 c0 -2 7 -7 16 -10 8 -3 12 -2 9 4 -6 10 -25 14 -25 6z"/>
<path d="M2435 2971 c-3 -2 -5 -11 -5 -19 0 -12 3 -12 15 -2 8 6 18 9 23 6 5
-3 9 0 9 7 0 12 -33 18 -42 8z"/>
<path d="M220 2966 c0 -2 8 -10 18 -17 15 -13 16 -12 3 4 -13 16 -21 21 -21
13z"/>
<path d="M3333 2913 c0 -9 4 -10 14 -2 7 6 13 12 13 14 0 1 -6 2 -13 2 -8 0
-14 -6 -14 -14z"/>
<path d="M220 2866 c0 -2 7 -7 16 -10 8 -3 12 -2 9 4 -6 10 -25 14 -25 6z"/>
<path d="M4558 2853 c7 -3 16 -2 19 1 4 3 -2 6 -13 5 -11 0 -14 -3 -6 -6z"/>
<path d="M4556 2802 c-3 -5 1 -9 9 -9 8 0 12 4 9 9 -3 4 -7 8 -9 8 -2 0 -6 -4
-9 -8z"/>
<path d="M3832 2747 c-7 -8 -7 -18 -2 -27 6 -8 10 -10 11 -5 0 6 2 18 4 28 4
20 1 21 -13 4z"/>
<path d="M1910 2721 c0 -5 5 -13 10 -16 6 -3 10 -2 10 4 0 5 -4 13 -10 16 -5
3 -10 2 -10 -4z"/>
<path d="M1991 2676 c2 -2 14 -9 26 -15 18 -9 22 -9 18 2 -3 7 -15 13 -26 14
-12 1 -20 1 -18 -1z"/>
<path d="M2059 2648 c7 -10 17 -15 22 -12 5 3 9 0 9 -5 0 -6 5 -11 11 -11 8 0
7 5 -1 15 -7 9 -15 13 -18 10 -3 -3 -12 1 -21 8 -14 11 -14 10 -2 -5z"/>
<path d="M2150 2610 c0 -5 5 -10 11 -10 5 0 7 5 4 10 -3 6 -8 10 -11 10 -2 0
-4 -4 -4 -10z"/>
<path d="M2875 2570 c-3 -5 -1 -10 4 -10 6 0 11 5 11 10 0 6 -2 10 -4 10 -3 0
-8 -4 -11 -10z"/>
<path d="M2862 2537 c-8 -10 -6 -13 11 -14 15 -2 18 0 8 6 -11 7 -11 9 0 14 8
3 9 6 3 6 -6 1 -16 -5 -22 -12z"/>
<path d="M2378 2503 c6 -2 9 -10 6 -15 -4 -7 -2 -8 5 -4 13 9 5 26 -12 25 -9
0 -8 -2 1 -6z"/>
<path d="M3217 2483 c-4 -3 -7 -11 -7 -16 0 -6 3 -7 7 -4 3 4 13 1 22 -6 14
-11 15 -10 1 8 -8 11 -15 21 -16 23 0 1 -4 -1 -7 -5z"/>
<path d="M255 2459 c-4 -6 -5 -12 -2 -15 2 -3 7 2 10 11 7 17 1 20 -8 4z"/>
<path d="M4550 2406 c0 -2 7 -7 16 -10 8 -3 12 -2 9 4 -6 10 -25 14 -25 6z"/>
<path d="M4563 2333 c9 -2 14 -9 11 -15 -4 -7 -2 -8 5 -4 15 10 4 26 -17 25
-15 -1 -15 -2 1 -6z"/>
<path d="M2790 2311 c0 -5 8 -15 18 -22 15 -13 16 -12 4 3 -10 13 -10 17 0 21
8 4 7 6 -4 6 -10 1 -18 -3 -18 -8z"/>
<path d="M4515 2290 c-3 -5 -1 -10 4 -10 6 0 11 5 11 10 0 6 -2 10 -4 10 -3 0
-8 -4 -11 -10z"/>
<path d="M4121 2271 c-6 -4 -12 -36 -12 -74 l-1 -66 -51 -17 c-48 -16 -51 -16
-63 1 -33 45 -66 75 -82 75 -17 0 -105 -66 -129 -97 -9 -12 -8 -21 5 -42 9
-14 22 -30 29 -34 7 -4 13 -14 13 -22 0 -7 6 -15 13 -18 9 -3 6 -17 -11 -52
l-23 -48 -42 7 c-23 3 -51 8 -63 12 -33 9 -50 -18 -62 -98 -11 -72 -11 -73 15
-98 14 -14 23 -20 20 -14 -3 6 0 11 7 11 8 0 12 -6 9 -13 -3 -8 2 -21 11 -29
19 -19 22 -5 4 14 -11 11 -9 11 9 2 27 -14 36 -14 28 -1 -3 6 1 7 9 4 9 -3 16
-10 16 -16 0 -5 -4 -7 -9 -3 -5 3 -13 0 -17 -6 -4 -7 -3 -9 2 -6 15 9 32 -6
39 -35 6 -23 1 -29 -49 -59 -30 -18 -57 -40 -58 -49 -4 -16 28 -84 50 -108 7
-7 10 -18 7 -23 -4 -5 1 -9 10 -9 10 0 13 -5 9 -12 -5 -7 0 -9 14 -6 19 5 20
3 11 -13 -5 -10 -6 -19 -1 -19 5 0 15 11 22 25 12 23 14 23 27 7 14 -16 14
-16 9 0 -3 12 -1 15 9 11 8 -3 12 -10 9 -15 -4 -6 3 -5 15 1 11 7 21 22 21 34
0 17 2 19 9 8 5 -8 7 -21 4 -30 -4 -14 -3 -14 5 -1 6 8 8 18 5 23 -3 5 4 3 16
-5 24 -15 26 -24 9 -32 -7 -3 -2 -3 11 0 18 5 22 3 15 -7 -5 -8 -10 -18 -11
-24 -1 -5 -8 -29 -14 -51 -11 -36 -10 -44 4 -58 8 -9 23 -16 31 -16 9 0 16 -4
16 -10 0 -5 -6 -8 -12 -6 -7 1 -10 1 -5 -1 4 -3 4 -10 0 -16 -4 -7 1 -6 10 2
15 12 18 10 27 -10 10 -22 10 -22 5 6 -4 22 -3 26 5 15 5 -8 10 -11 10 -6 0 5
6 3 14 -3 7 -6 22 -8 32 -5 18 6 18 6 0 -8 -10 -8 -15 -18 -9 -21 15 -9 44 -2
54 14 6 10 9 10 9 2 0 -7 4 -13 8 -13 5 0 9 7 9 15 0 8 -4 15 -9 15 -4 0 -8 8
-7 18 0 10 3 12 6 5 2 -7 12 -13 21 -12 11 0 12 2 5 6 -7 2 -13 9 -13 14 0 6
6 7 13 3 8 -5 8 -3 -2 9 -7 9 -18 14 -25 10 -6 -3 -7 -2 -3 2 10 12 38 15 32
4 -4 -5 1 -6 11 -2 15 5 15 7 -2 17 -23 13 -28 33 -9 33 7 0 11 -7 8 -14 -6
-16 16 -14 35 4 16 16 32 17 32 2 0 -5 -4 -8 -9 -4 -5 3 -13 0 -17 -7 -4 -7
-4 -10 1 -6 4 4 14 3 21 -3 8 -7 14 -6 20 2 5 8 3 9 -6 4 -9 -5 -11 -4 -6 3
11 19 16 15 38 -35 24 -56 32 -63 67 -56 14 2 23 2 20 -2 -4 -3 -17 -8 -29
-10 -33 -6 -35 -13 -4 -13 14 1 31 -6 36 -13 8 -11 9 -10 4 4 -3 9 -1 17 4 17
6 0 10 -5 10 -12 0 -6 3 -8 6 -5 4 4 1 13 -5 21 -10 12 -8 13 10 9 15 -4 20
-2 15 5 -4 7 1 10 14 7 14 -3 20 1 20 13 0 14 2 15 10 2 9 -15 -7 -33 -21 -24
-4 2 -12 -3 -18 -10 -9 -11 -9 -14 1 -12 25 4 58 27 53 37 -4 5 1 9 9 9 10 0
13 -6 10 -17 -5 -15 -4 -16 5 -3 6 9 7 18 1 24 -17 17 -11 29 8 15 15 -12 16
-12 5 2 -7 9 -9 20 -5 24 4 5 0 6 -8 3 -10 -4 -16 0 -16 12 0 11 6 16 16 14 8
-3 5 1 -7 7 -13 7 -23 16 -23 21 0 5 5 6 10 3 6 -3 10 -1 10 4 0 6 -5 11 -10
11 -6 0 -8 11 -6 24 2 14 -1 27 -7 29 -6 2 -3 6 7 10 10 4 15 3 11 -3 -3 -6 0
-10 7 -10 9 0 9 -3 -2 -10 -11 -7 -11 -10 -2 -10 7 0 10 -5 6 -12 -4 -6 -3 -8
3 -5 6 4 10 21 9 38 -1 16 2 33 7 36 6 3 7 1 3 -5 -7 -11 6 -17 28 -13 5 1 16
-1 25 -5 9 -4 27 -8 41 -9 14 -1 30 -3 35 -5 22 -5 36 1 29 13 -4 6 -4 9 1 5
4 -4 15 -3 24 3 9 6 3 0 -12 -15 -23 -21 -32 -24 -48 -16 -29 16 -23 5 9 -15
15 -10 24 -14 20 -10 -10 11 29 38 42 30 6 -4 7 1 3 11 -5 13 -3 15 8 9 8 -5
6 0 -4 12 -12 14 -15 23 -7 28 5 3 8 10 6 14 -3 4 1 8 9 8 10 0 12 -4 5 -12
-6 -7 -2 -11 13 -12 12 -1 17 1 12 5 -14 10 -19 46 -6 37 7 -3 8 0 5 9 -4 10
-1 16 7 16 12 0 12 2 1 9 -8 4 -19 19 -25 32 -7 13 -28 32 -48 42 -42 22 -69
57 -43 57 8 0 13 -4 9 -9 -3 -5 -1 -12 4 -15 5 -4 8 2 6 11 -1 10 6 27 16 39
15 16 16 21 5 21 -8 0 -12 -5 -9 -10 4 -6 1 -7 -7 -2 -9 6 -11 4 -5 -5 6 -9 4
-11 -5 -5 -9 5 -11 4 -6 -3 5 -8 1 -10 -9 -6 -14 6 -13 8 5 21 11 8 18 18 16
22 -3 4 8 6 23 3 16 -2 32 1 35 7 4 6 13 11 19 11 7 -1 1 -10 -12 -20 -28 -24
-20 -26 14 -4 14 9 22 21 18 28 -3 6 3 2 15 -8 12 -11 25 -16 29 -13 3 4 1 7
-5 7 -6 0 -17 10 -23 23 -11 20 -11 21 5 8 9 -8 19 -11 23 -7 3 3 1 6 -6 6 -8
0 -11 7 -7 15 3 8 0 14 -6 12 -5 -1 -12 6 -13 16 -2 9 0 15 4 13 4 -3 13 4 20
16 7 11 8 17 3 14 -6 -3 -12 -3 -15 1 -2 5 -2 1 0 -7 3 -12 2 -13 -9 -2 -11
11 -10 16 6 28 11 8 14 14 7 14 -7 0 -9 5 -5 13 6 9 5 9 -8 -1 -13 -10 -15 -9
-14 10 2 36 -29 58 -72 51 -20 -3 -39 -7 -41 -9 -2 -2 -11 2 -19 9 -13 9 -14
9 -8 0 4 -8 1 -13 -9 -13 -9 0 -13 5 -10 10 3 6 2 10 -3 10 -8 0 -32 42 -32
57 0 3 7 3 15 -1 16 -6 20 13 8 30 -5 5 0 0 11 -11 l19 -20 -7 22 c-4 12 -2
24 4 28 6 3 7 11 4 17 -4 6 -3 9 2 6 5 -3 18 -2 29 3 19 7 19 8 -2 8 -13 1
-23 6 -23 12 0 5 4 8 9 5 5 -4 8 2 7 11 -4 22 -104 112 -135 120 -20 5 -31 -2
-65 -42 -42 -48 -42 -48 -78 -36 -46 15 -66 37 -50 53 17 17 15 31 -4 24 -8
-3 -12 -2 -9 4 3 6 13 10 21 10 8 0 14 4 14 10 0 5 -6 7 -14 4 -7 -3 -16 2
-19 10 -4 11 -1 13 10 9 10 -4 7 3 -8 18 -21 21 -34 24 -100 25 -42 1 -82 -2
-88 -5z m112 -405 c4 -10 0 -14 -12 -11 -10 2 -24 0 -31 -5 -7 -4 5 -7 29 -6
24 1 46 8 52 17 6 10 9 11 9 1 0 -7 5 -10 11 -7 6 4 13 -2 16 -13 3 -14 10
-19 21 -14 15 5 15 4 3 -11 -12 -15 -12 -17 0 -12 20 8 45 -41 48 -93 7 -119
-141 -215 -245 -158 -38 20 -77 63 -69 76 3 5 2 10 -4 10 -6 0 -7 7 -4 17 4 9
2 14 -3 10 -6 -3 -10 3 -11 13 -1 11 2 22 8 25 5 4 6 -2 2 -12 -3 -10 -3 -15
1 -12 11 11 15 48 5 54 -5 4 -9 1 -9 -4 0 -6 -5 -11 -11 -11 -8 0 -8 5 1 15 7
8 16 12 21 9 5 -3 17 0 26 6 17 11 17 11 1 6 -10 -3 -18 -1 -18 4 0 6 5 10 11
10 5 0 8 4 4 10 -3 5 -13 7 -23 4 -14 -5 -14 -4 -2 4 8 6 18 8 23 5 4 -3 20
-6 35 -8 23 -2 24 -1 9 10 -9 7 -17 18 -17 24 0 7 -5 9 -12 5 -7 -4 -8 -3 -4
4 4 6 13 9 21 6 8 -4 13 -9 10 -13 -2 -4 2 -8 10 -8 8 0 14 3 13 6 -2 19 4 24
12 11 9 -13 10 -13 10 1 0 8 -6 21 -12 29 -11 12 -10 12 2 3 10 -7 21 -8 30
-3 8 5 18 6 22 4 4 -3 8 0 8 5 0 15 7 14 13 -3z m-93 -16 c0 -5 -5 -10 -11
-10 -5 0 -7 5 -4 10 3 6 8 10 11 10 2 0 4 -4 4 -10z m598 -400 c-7 -11 -17
-20 -22 -20 -5 0 -1 9 9 20 10 11 20 20 22 20 2 0 -2 -9 -9 -20z m-195 -65 c4
-8 3 -16 -1 -19 -4 -3 -9 4 -9 15 -2 23 3 25 10 4z m47 -26 c0 -6 -4 -7 -10
-4 -5 3 -10 11 -10 16 0 6 5 7 10 4 6 -3 10 -11 10 -16z m-483 -231 c-3 -8 -6
-5 -6 6 -1 11 2 17 5 13 3 -3 4 -12 1 -19z"/>
<path d="M4282 1841 c-11 -7 -11 -9 0 -14 9 -3 15 1 15 9 0 8 -1 14 -1 14 -1
0 -7 -4 -14 -9z"/>
<path d="M4490 2270 c0 -5 5 -10 11 -10 5 0 7 5 4 10 -3 6 -8 10 -11 10 -2 0
-4 -4 -4 -10z"/>
<path d="M2743 2214 c0 -16 13 -19 21 -5 3 5 0 11 -7 14 -8 3 -14 -1 -14 -9z"/>
<path d="M4325 2151 c-3 -5 0 -13 6 -17 7 -4 9 -3 5 4 -3 5 0 13 6 15 9 4 10
6 1 6 -6 1 -14 -3 -18 -8z"/>
<path d="M375 2011 c-3 -5 -2 -12 3 -15 5 -3 9 1 9 9 0 17 -3 19 -12 6z"/>
<path d="M4627 2001 c-10 -14 -10 -14 5 -3 13 10 17 10 20 0 3 -8 6 -7 10 3 8
21 -19 20 -35 0z"/>
<path d="M4587 1934 c2 -7 11 -10 19 -7 19 7 18 10 -5 16 -13 3 -18 1 -14 -9z"/>
<path d="M410 1933 c5 -2 8 -9 5 -13 -3 -5 -1 -11 4 -14 5 -4 8 2 7 11 -2 9
-8 18 -15 19 -6 1 -7 0 -1 -3z"/>
<path d="M4790 1745 c-11 -13 -10 -14 4 -9 9 3 16 10 16 15 0 13 -6 11 -20 -6z"/>
<path d="M3589 1565 c-1 -3 -2 -13 -3 -22 -1 -10 -5 -24 -9 -30 -5 -8 -3 -13
5 -13 10 0 9 -3 -2 -11 -13 -9 -13 -10 0 -6 8 2 14 10 12 17 -2 7 3 17 10 21
10 7 10 9 -2 9 -13 0 -13 1 0 10 11 7 11 10 2 10 -7 0 -10 5 -7 10 3 6 4 10 1
10 -3 0 -7 -2 -7 -5z"/>
<path d="M1638 1378 c2 -10 6 -18 7 -18 1 0 5 8 7 18 3 11 0 19 -7 19 -7 0
-10 -8 -7 -19z"/>
<path d="M2075 1391 c-6 -11 13 -26 22 -17 4 3 1 6 -6 6 -7 0 -9 5 -6 10 3 6
4 10 1 10 -3 0 -7 -4 -11 -9z"/>
<path d="M2235 1391 c-6 -11 13 -26 22 -17 4 3 1 6 -6 6 -7 0 -9 5 -6 10 3 6
4 10 1 10 -3 0 -7 -4 -11 -9z"/>
<path d="M2395 1391 c-6 -11 13 -26 22 -17 4 3 1 6 -6 6 -7 0 -9 5 -6 10 3 6
4 10 1 10 -3 0 -7 -4 -11 -9z"/>
<path d="M2758 1378 c2 -10 6 -18 7 -18 1 0 5 8 7 18 3 11 0 19 -7 19 -7 0
-10 -8 -7 -19z"/>
<path d="M3398 1378 c2 -10 6 -18 7 -18 1 0 5 8 7 18 3 11 0 19 -7 19 -7 0
-10 -8 -7 -19z"/>
<path d="M2556 1377 c3 -10 9 -15 12 -12 3 3 0 11 -7 18 -10 9 -11 8 -5 -6z"/>
<path d="M3807 1325 c-4 -8 -3 -16 1 -19 4 -3 9 4 9 15 2 23 -3 25 -10 4z"/>
<path d="M3830 1311 c0 -6 4 -13 10 -16 6 -3 7 1 4 9 -7 18 -14 21 -14 7z"/>
<path d="M4030 1141 c0 -5 5 -13 10 -16 6 -3 10 -2 10 4 0 5 -4 13 -10 16 -5
3 -10 2 -10 -4z"/>
<path d="M5640 3713 c0 -6 8 -17 18 -24 16 -13 16 -13 2 6 -8 11 -16 22 -17
24 -2 2 -3 0 -3 -6z"/>
<path d="M5700 3449 c0 -5 5 -7 10 -4 6 3 10 8 10 11 0 2 -4 4 -10 4 -5 0 -10
-5 -10 -11z"/>
<path d="M5735 3299 c-4 -6 -5 -12 -2 -15 2 -3 7 2 10 11 7 17 1 20 -8 4z"/>
<path d="M5738 3233 c6 -2 9 -10 6 -15 -4 -7 -2 -8 5 -4 13 9 5 26 -12 25 -9
0 -8 -2 1 -6z"/>
<path d="M5753 3033 c4 -3 2 -12 -4 -19 -7 -8 -6 -14 2 -20 7 -4 9 -3 5 4 -3
6 -2 13 4 17 14 8 13 25 -2 25 -6 0 -8 -3 -5 -7z"/>
<path d="M5744 2765 c0 -19 3 -22 13 -13 10 8 10 14 2 24 -15 18 -15 18 -15
-11z"/>
<path d="M5715 2500 c-3 -5 -1 -10 4 -10 6 0 11 5 11 10 0 6 -2 10 -4 10 -3 0
-8 -4 -11 -10z"/>
<path d="M5606 2021 c-16 -17 -16 -19 1 -25 9 -4 14 -4 11 0 -4 4 -3 15 3 25
12 24 7 24 -15 0z"/>
<path d="M5587 1966 c-4 -10 -1 -13 9 -9 15 6 19 23 5 23 -5 0 -11 -7 -14 -14z"/>
<path d="M5190 1226 c0 -2 8 -10 18 -17 15 -13 16 -12 3 4 -13 16 -21 21 -21
13z"/>
<path d="M4890 849 c0 -5 5 -7 10 -4 6 3 10 8 10 11 0 2 -4 4 -10 4 -5 0 -10
-5 -10 -11z"/>
<path d="M1040 726 c0 -2 8 -10 18 -17 15 -13 16 -12 3 4 -13 16 -21 21 -21
13z"/>
<path d="M4690 695 c-9 -10 -9 -15 -1 -15 6 0 11 5 11 11 0 5 5 7 12 3 7 -4 8
-3 4 4 -9 15 -11 15 -26 -3z"/>
<path d="M4420 490 c-9 -6 -10 -10 -3 -10 6 0 15 5 18 10 8 12 4 12 -15 0z"/>
<path d="M1406 467 c3 -10 9 -15 12 -12 3 3 0 11 -7 18 -10 9 -11 8 -5 -6z"/>
<path d="M4265 419 c-3 -3 3 -9 13 -11 11 -3 19 0 19 7 0 13 -25 16 -32 4z"/>
<path d="M4156 328 c3 -5 10 -6 15 -3 13 9 11 12 -6 12 -8 0 -12 -4 -9 -9z"/>
<path d="M3870 225 c-9 -11 -15 -12 -20 -5 -5 7 -11 6 -19 -4 -9 -11 -9 -16 0
-22 8 -5 9 -3 4 6 -6 10 -4 12 8 7 9 -3 19 -2 23 4 3 6 12 8 20 5 8 -3 11 0 7
10 -7 18 -8 18 -23 -1z"/>
<path d="M3755 200 c-3 -5 -1 -10 5 -10 6 0 8 -5 4 -12 -4 -7 -3 -8 4 -4 6 4
9 13 5 21 -6 18 -10 19 -18 5z"/>
<path d="M2015 170 c3 -5 8 -10 11 -10 2 0 4 5 4 10 0 6 -5 10 -11 10 -5 0 -7
-4 -4 -10z"/>
<path d="M2371 103 c-1 -16 16 -26 24 -13 4 6 12 7 18 4 8 -4 7 -2 -1 7 -11
12 -14 12 -21 0 -7 -11 -9 -11 -14 0 -3 9 -6 10 -6 2z"/>
<path d="M2627 43 c6 -16 10 -16 16 0 3 8 -1 14 -8 14 -7 0 -11 -6 -8 -14z"/>
<path d="M2721 44 c0 -11 3 -14 6 -6 3 7 2 16 -1 19 -3 4 -6 -2 -5 -13z"/>
</g>
</svg>
